    <svg xmlns="http://www.w3.org/2000/svg" width="227" height="93" viewBox="0 0 227 93" fill="none">
  <path d="M1.46886 51.9363C-0.772812 45.7412 3.52903 39.1204 10.1005 38.6517L21.4216 37.8443C22.9395 37.736 24.4383 37.441 25.884 36.9659L42.7831 31.4126C48.4783 29.541 54.3302 28.1854 60.2681 27.3621L106.365 20.9704L151.085 9.01721C157.035 7.42682 163.12 6.38953 169.261 5.91856L185.137 4.70091C186.959 4.56122 188.756 4.19785 190.489 3.61901L197.734 1.19864C206.573 -1.75438 216.002 3.70018 217.849 12.835L225.142 34.3916C225.734 36.141 226.048 37.9725 226.072 39.8192C226.182 48.3049 220.238 55.668 211.92 57.3497L199.091 59.9434L178.957 61.9224C173.899 62.4195 168.887 63.3015 163.963 64.5606L117.576 76.4232L62.6733 84.6422L35.6831 88.0695C34.522 88.2169 33.3739 88.4529 32.2487 88.7753L22.0713 91.6914C14.6657 93.8134 7.02414 89.1689 5.49759 81.6181L3.61246 72.2936C2.98176 69.174 2.58816 66.0111 2.43502 62.832L2.0499 54.8374C2.00218 53.8468 1.80633 52.8689 1.46886 51.9363Z" fill="#FED0AB"/>
  
  <text x="45%" y="74%" dominant-baseline="middle" text-anchor="middle" fill="black" className='wo rotate-[-11.429deg] text-center text-[26px] font-bold'>FRONT-END</text>
</svg>