<svg width="521" height="74" viewBox="0 0 521 74" fill="none" xmlns="http://www.w3.org/2000/svg">
<path d="M521 56.7754C521 59.9651 501.621 56.7754 460.523 56.7754C412.728 56.7754 381 61.7807 381 56.7754C381 53.5857 412.728 51 460.523 51C508.317 51 521 53.5857 521 56.7754Z" fill="black"/>
<path d="M3.23206 50V14.6H9.56806V48.104L6.71206 44.768H22.9841V50H3.23206ZM29.8301 39.296V34.808H47.6621L46.9421 36.008C46.9421 35.912 46.9421 35.808 46.9421 35.696C46.9421 35.568 46.9421 35.464 46.9421 35.384C46.9421 34.28 46.6941 33.248 46.1981 32.288C45.7021 31.312 44.9501 30.528 43.9421 29.936C42.9341 29.328 41.6541 29.024 40.1021 29.024C38.5661 29.024 37.2301 29.352 36.0941 30.008C34.9741 30.648 34.1021 31.576 33.4781 32.792C32.8701 34.008 32.5661 35.464 32.5661 37.16C32.5661 38.904 32.8621 40.408 33.4541 41.672C34.0461 42.92 34.9101 43.88 36.0461 44.552C37.1981 45.208 38.5981 45.536 40.2461 45.536C41.3661 45.536 42.3341 45.432 43.1501 45.224C43.9661 45.016 44.6301 44.736 45.1421 44.384C45.6701 44.016 46.0621 43.624 46.3181 43.208C46.5901 42.792 46.7501 42.376 46.7981 41.96H53.0861C52.9901 43.032 52.6301 44.08 52.0061 45.104C51.3981 46.112 50.5421 47.032 49.4381 47.864C48.3341 48.68 46.9901 49.336 45.4061 49.832C43.8381 50.312 42.0461 50.552 40.0301 50.552C37.2941 50.552 34.9021 49.992 32.8541 48.872C30.8061 47.752 29.2061 46.192 28.0541 44.192C26.9181 42.192 26.3501 39.904 26.3501 37.328C26.3501 34.688 26.9261 32.376 28.0781 30.392C29.2461 28.408 30.8621 26.864 32.9261 25.76C34.9901 24.64 37.3581 24.08 40.0301 24.08C42.7821 24.08 45.1581 24.64 47.1581 25.76C49.1741 26.88 50.7261 28.44 51.8141 30.44C52.9021 32.424 53.4461 34.736 53.4461 37.376C53.4461 37.712 53.4381 38.072 53.4221 38.456C53.4061 38.84 53.3821 39.12 53.3501 39.296H29.8301ZM69.5047 50.48C68.5927 50.48 67.6647 50.392 66.7207 50.216C65.7767 50.04 64.9127 49.712 64.1287 49.232C63.3447 48.752 62.7127 48.048 62.2327 47.12C61.7527 46.192 61.5127 44.968 61.5127 43.448C61.5127 43.096 61.5127 42.744 61.5127 42.392C61.5127 42.024 61.5127 41.648 61.5127 41.264V29.552H55.4887V24.512H57.9367C58.7687 24.512 59.4247 24.48 59.9047 24.416C60.3847 24.336 60.7367 24.16 60.9607 23.888C61.1847 23.616 61.3287 23.192 61.3927 22.616C61.4727 22.024 61.5127 21.208 61.5127 20.168V16.112H67.8487V24.512H75.4327V29.552H67.8487V39.776C67.8487 40.08 67.8487 40.384 67.8487 40.688C67.8487 40.976 67.8487 41.256 67.8487 41.528C67.8487 42.712 67.9927 43.664 68.2807 44.384C68.5687 45.104 69.2487 45.464 70.3207 45.464C70.8327 45.464 71.3127 45.416 71.7607 45.32C72.2247 45.224 72.5687 45.128 72.7927 45.032V49.976C72.4887 50.088 72.0487 50.2 71.4727 50.312C70.8967 50.424 70.2407 50.48 69.5047 50.48ZM81.9029 20.48C80.8629 20.48 80.0229 20.176 79.3829 19.568C78.7589 18.96 78.4469 18.144 78.4469 17.12C78.4469 16.08 78.7909 15.224 79.4789 14.552C80.1669 13.88 81.1589 13.544 82.4549 13.544C83.7669 13.544 84.7669 13.984 85.4549 14.864C86.1589 15.728 86.5109 16.84 86.5109 18.2C86.5109 19.496 86.1909 20.648 85.5509 21.656C84.9109 22.648 84.1109 23.496 83.1509 24.2C82.1909 24.888 81.2309 25.424 80.2709 25.808L79.4789 24.248C80.1509 23.976 80.8069 23.608 81.4469 23.144C82.1029 22.68 82.6469 22.168 83.0789 21.608C83.5109 21.032 83.7269 20.448 83.7269 19.856C83.6629 19.952 83.4709 20.08 83.1509 20.24C82.8309 20.4 82.4149 20.48 81.9029 20.48ZM99.7961 50.528C98.2761 50.528 96.8281 50.36 95.4521 50.024C94.0921 49.688 92.8761 49.184 91.8041 48.512C90.7481 47.84 89.9081 47.008 89.2841 46.016C88.6761 45.008 88.3721 43.848 88.3721 42.536C88.3721 42.44 88.3721 42.344 88.3721 42.248C88.3721 42.152 88.3721 42.064 88.3721 41.984H94.6601C94.6601 42.064 94.6601 42.136 94.6601 42.2C94.6601 42.248 94.6601 42.32 94.6601 42.416C94.6601 43.456 95.1321 44.24 96.0761 44.768C97.0361 45.28 98.3401 45.536 99.9881 45.536C100.884 45.536 101.724 45.44 102.508 45.248C103.308 45.056 103.948 44.76 104.428 44.36C104.924 43.96 105.172 43.448 105.172 42.824C105.172 41.816 104.652 41.096 103.612 40.664C102.588 40.232 100.972 39.84 98.7641 39.488C97.5481 39.28 96.3481 39 95.1641 38.648C93.9801 38.296 92.9001 37.824 91.9241 37.232C90.9641 36.64 90.1881 35.904 89.5961 35.024C89.0201 34.144 88.7321 33.072 88.7321 31.808C88.7321 30.128 89.2281 28.72 90.2201 27.584C91.2281 26.432 92.5721 25.56 94.2521 24.968C95.9481 24.376 97.8121 24.08 99.8441 24.08C101.796 24.08 103.612 24.4 105.292 25.04C106.972 25.68 108.324 26.6 109.348 27.8C110.388 29 110.908 30.448 110.908 32.144C110.908 32.208 110.908 32.28 110.908 32.36C110.908 32.424 110.908 32.48 110.908 32.528H104.668C104.668 32.48 104.668 32.432 104.668 32.384C104.668 32.336 104.668 32.28 104.668 32.216C104.668 31.48 104.436 30.88 103.972 30.416C103.508 29.952 102.908 29.608 102.172 29.384C101.436 29.16 100.66 29.048 99.8441 29.048C99.1241 29.048 98.3801 29.128 97.6121 29.288C96.8441 29.432 96.2041 29.696 95.6921 30.08C95.1801 30.448 94.9241 30.968 94.9241 31.64C94.9241 32.28 95.1881 32.8 95.7161 33.2C96.2441 33.6 96.9801 33.936 97.9241 34.208C98.8681 34.464 99.9561 34.696 101.188 34.904C102.356 35.096 103.532 35.36 104.716 35.696C105.916 36.032 107.012 36.48 108.004 37.04C108.996 37.6 109.796 38.336 110.404 39.248C111.028 40.144 111.34 41.256 111.34 42.584C111.34 43.992 111.02 45.192 110.38 46.184C109.74 47.176 108.868 48 107.764 48.656C106.676 49.296 105.444 49.768 104.068 50.072C102.692 50.376 101.268 50.528 99.7961 50.528ZM127.395 60.488V24.512H133.707V60.488H127.395ZM141.747 50.528C139.763 50.528 137.923 50.016 136.227 48.992C134.547 47.952 133.187 46.536 132.147 44.744C131.123 42.952 130.611 40.936 130.611 38.696C130.611 38.632 130.611 38.576 130.611 38.528C130.611 38.464 130.611 38.408 130.611 38.36L133.731 38.288C133.731 38.32 133.731 38.36 133.731 38.408C133.731 38.456 133.731 38.496 133.731 38.528C133.731 39.776 134.043 40.888 134.667 41.864C135.291 42.824 136.099 43.584 137.091 44.144C138.099 44.688 139.171 44.96 140.307 44.96C142.147 44.96 143.715 44.328 145.011 43.064C146.307 41.8 146.955 39.84 146.955 37.184C146.955 34.512 146.307 32.56 145.011 31.328C143.731 30.08 142.163 29.456 140.307 29.456C139.187 29.456 138.123 29.728 137.115 30.272C136.123 30.8 135.307 31.536 134.667 32.48C134.043 33.424 133.731 34.528 133.731 35.792L130.611 35.648C130.611 33.392 131.123 31.392 132.147 29.648C133.187 27.904 134.547 26.544 136.227 25.568C137.923 24.576 139.763 24.08 141.747 24.08C143.811 24.08 145.731 24.584 147.507 25.592C149.299 26.6 150.739 28.08 151.827 30.032C152.931 31.984 153.483 34.368 153.483 37.184C153.483 40.08 152.947 42.52 151.875 44.504C150.803 46.488 149.379 47.992 147.603 49.016C145.827 50.024 143.875 50.528 141.747 50.528ZM164.707 12.488V50H158.491V12.488H164.707ZM179.323 50.528C177.419 50.528 175.747 50.232 174.307 49.64C172.867 49.032 171.739 48.16 170.923 47.024C170.107 45.888 169.699 44.52 169.699 42.92C169.699 41.176 170.171 39.744 171.115 38.624C172.075 37.488 173.363 36.616 174.979 36.008C176.595 35.384 178.387 34.984 180.355 34.808C183.267 34.52 185.299 34.248 186.451 33.992C187.619 33.72 188.203 33.288 188.203 32.696C188.203 32.68 188.203 32.672 188.203 32.672C188.203 32.656 188.203 32.648 188.203 32.648C188.203 31.528 187.699 30.664 186.691 30.056C185.683 29.448 184.259 29.144 182.419 29.144C180.483 29.144 178.995 29.488 177.955 30.176C176.931 30.848 176.419 31.92 176.419 33.392H170.179C170.179 31.392 170.707 29.704 171.763 28.328C172.835 26.936 174.299 25.88 176.155 25.16C178.011 24.44 180.115 24.08 182.467 24.08C184.659 24.08 186.667 24.408 188.491 25.064C190.315 25.72 191.779 26.712 192.883 28.04C193.987 29.368 194.539 31.024 194.539 33.008C194.539 33.344 194.539 33.68 194.539 34.016C194.539 34.352 194.539 34.688 194.539 35.024V44.624C194.539 45.232 194.555 45.832 194.587 46.424C194.635 47 194.723 47.52 194.851 47.984C195.011 48.496 195.203 48.928 195.427 49.28C195.651 49.632 195.827 49.872 195.955 50H189.715C189.603 49.888 189.443 49.672 189.235 49.352C189.043 49.016 188.867 48.632 188.707 48.2C188.547 47.72 188.427 47.208 188.347 46.664C188.267 46.104 188.227 45.488 188.227 44.816L189.475 45.68C188.995 46.656 188.259 47.512 187.267 48.248C186.291 48.968 185.123 49.528 183.763 49.928C182.403 50.328 180.923 50.528 179.323 50.528ZM180.859 45.56C182.171 45.56 183.387 45.336 184.507 44.888C185.627 44.44 186.531 43.752 187.219 42.824C187.907 41.88 188.251 40.672 188.251 39.2V35.792L189.787 37.52C188.763 37.904 187.531 38.224 186.091 38.48C184.651 38.72 183.195 38.912 181.723 39.056C179.835 39.232 178.411 39.56 177.451 40.04C176.507 40.52 176.035 41.304 176.035 42.392C176.035 43.448 176.435 44.24 177.235 44.768C178.035 45.296 179.243 45.56 180.859 45.56ZM200.635 60.944C199.883 60.944 199.211 60.904 198.619 60.824C198.027 60.76 197.659 60.696 197.515 60.632V55.712C197.723 55.808 198.075 55.88 198.571 55.928C199.083 55.992 199.611 56.024 200.155 56.024C201.035 56.024 201.795 55.848 202.435 55.496C203.091 55.144 203.651 54.656 204.115 54.032C204.579 53.424 204.947 52.712 205.219 51.896L205.771 50.288L196.987 24.512H203.587L209.611 45.776H208.843L214.723 24.512H221.203L212.275 51.56C211.651 53.432 210.891 55.072 209.995 56.48C209.115 57.888 207.939 58.984 206.467 59.768C204.995 60.552 203.051 60.944 200.635 60.944ZM246.514 50.528C244.994 50.528 243.546 50.36 242.17 50.024C240.81 49.688 239.594 49.184 238.522 48.512C237.466 47.84 236.626 47.008 236.002 46.016C235.394 45.008 235.09 43.848 235.09 42.536C235.09 42.44 235.09 42.344 235.09 42.248C235.09 42.152 235.09 42.064 235.09 41.984H241.378C241.378 42.064 241.378 42.136 241.378 42.2C241.378 42.248 241.378 42.32 241.378 42.416C241.378 43.456 241.85 44.24 242.794 44.768C243.754 45.28 245.058 45.536 246.706 45.536C247.602 45.536 248.442 45.44 249.226 45.248C250.026 45.056 250.666 44.76 251.146 44.36C251.642 43.96 251.89 43.448 251.89 42.824C251.89 41.816 251.37 41.096 250.33 40.664C249.306 40.232 247.69 39.84 245.482 39.488C244.266 39.28 243.066 39 241.882 38.648C240.698 38.296 239.618 37.824 238.642 37.232C237.682 36.64 236.906 35.904 236.314 35.024C235.738 34.144 235.45 33.072 235.45 31.808C235.45 30.128 235.946 28.72 236.938 27.584C237.946 26.432 239.29 25.56 240.97 24.968C242.666 24.376 244.53 24.08 246.562 24.08C248.514 24.08 250.33 24.4 252.01 25.04C253.69 25.68 255.042 26.6 256.066 27.8C257.106 29 257.626 30.448 257.626 32.144C257.626 32.208 257.626 32.28 257.626 32.36C257.626 32.424 257.626 32.48 257.626 32.528H251.386C251.386 32.48 251.386 32.432 251.386 32.384C251.386 32.336 251.386 32.28 251.386 32.216C251.386 31.48 251.154 30.88 250.69 30.416C250.226 29.952 249.626 29.608 248.89 29.384C248.154 29.16 247.378 29.048 246.562 29.048C245.842 29.048 245.098 29.128 244.33 29.288C243.562 29.432 242.922 29.696 242.41 30.08C241.898 30.448 241.642 30.968 241.642 31.64C241.642 32.28 241.906 32.8 242.434 33.2C242.962 33.6 243.698 33.936 244.642 34.208C245.586 34.464 246.674 34.696 247.906 34.904C249.074 35.096 250.25 35.36 251.434 35.696C252.634 36.032 253.73 36.48 254.722 37.04C255.714 37.6 256.514 38.336 257.122 39.248C257.746 40.144 258.058 41.256 258.058 42.584C258.058 43.992 257.738 45.192 257.098 46.184C256.458 47.176 255.586 48 254.482 48.656C253.394 49.296 252.162 49.768 250.786 50.072C249.41 50.376 247.986 50.528 246.514 50.528ZM275.217 50.504C272.529 50.504 270.161 49.944 268.113 48.824C266.065 47.688 264.457 46.12 263.289 44.12C262.137 42.12 261.561 39.832 261.561 37.256C261.561 34.664 262.137 32.384 263.289 30.416C264.457 28.432 266.065 26.88 268.113 25.76C270.161 24.64 272.529 24.08 275.217 24.08C277.905 24.08 280.273 24.64 282.321 25.76C284.369 26.88 285.969 28.432 287.121 30.416C288.289 32.384 288.873 34.664 288.873 37.256C288.873 39.832 288.289 42.12 287.121 44.12C285.969 46.12 284.369 47.688 282.321 48.824C280.273 49.944 277.905 50.504 275.217 50.504ZM275.217 45.344C276.673 45.344 277.945 45.008 279.033 44.336C280.121 43.664 280.969 42.728 281.577 41.528C282.185 40.312 282.489 38.888 282.489 37.256C282.489 35.624 282.185 34.216 281.577 33.032C280.969 31.832 280.121 30.904 279.033 30.248C277.945 29.592 276.673 29.264 275.217 29.264C273.777 29.264 272.505 29.592 271.401 30.248C270.313 30.904 269.465 31.832 268.857 33.032C268.249 34.216 267.945 35.624 267.945 37.256C267.945 38.888 268.249 40.312 268.857 41.528C269.465 42.728 270.313 43.664 271.401 44.336C272.505 45.008 273.777 45.344 275.217 45.344ZM309.359 50V39.656C309.359 38.712 309.359 37.888 309.359 37.184C309.359 36.464 309.359 35.864 309.359 35.384C309.359 34.76 309.319 34.112 309.239 33.44C309.159 32.752 308.983 32.12 308.711 31.544C308.439 30.968 308.015 30.504 307.439 30.152C306.879 29.784 306.103 29.6 305.111 29.6C304.151 29.6 303.335 29.8 302.663 30.2C302.007 30.584 301.463 31.104 301.031 31.76C300.615 32.4 300.311 33.136 300.119 33.968C299.927 34.784 299.831 35.624 299.831 36.488L297.719 35.072C297.719 32.976 298.111 31.104 298.895 29.456C299.679 27.808 300.791 26.504 302.231 25.544C303.687 24.568 305.407 24.08 307.391 24.08C309.439 24.08 311.063 24.512 312.263 25.376C313.463 26.224 314.319 27.376 314.831 28.832C315.359 30.288 315.623 31.92 315.623 33.728C315.623 34.4 315.623 35.296 315.623 36.416C315.623 37.52 315.623 38.824 315.623 40.328V50H309.359ZM293.519 50V24.512H299.831V50H293.519ZM325.103 50V39.68C325.103 38.672 325.103 37.816 325.103 37.112C325.103 36.408 325.103 35.816 325.103 35.336C325.103 34.664 325.063 33.992 324.983 33.32C324.903 32.632 324.727 32.016 324.455 31.472C324.183 30.912 323.759 30.464 323.183 30.128C322.607 29.776 321.823 29.6 320.831 29.6C319.855 29.6 319.031 29.792 318.359 30.176C317.703 30.56 317.175 31.072 316.775 31.712C316.375 32.352 316.079 33.072 315.887 33.872C315.711 34.672 315.623 35.472 315.623 36.272L313.511 34.88C313.511 32.848 313.895 31.016 314.663 29.384C315.431 27.752 316.535 26.464 317.975 25.52C319.415 24.56 321.127 24.08 323.111 24.08C325.111 24.08 326.719 24.488 327.935 25.304C329.151 26.12 330.031 27.24 330.575 28.664C331.135 30.072 331.415 31.68 331.415 33.488C331.415 34.192 331.415 35.088 331.415 36.176C331.415 37.264 331.415 38.552 331.415 40.04V50H325.103ZM339.264 39.296V34.808H357.096L356.376 36.008C356.376 35.912 356.376 35.808 356.376 35.696C356.376 35.568 356.376 35.464 356.376 35.384C356.376 34.28 356.128 33.248 355.632 32.288C355.136 31.312 354.384 30.528 353.376 29.936C352.368 29.328 351.088 29.024 349.536 29.024C348 29.024 346.664 29.352 345.528 30.008C344.408 30.648 343.536 31.576 342.912 32.792C342.304 34.008 342 35.464 342 37.16C342 38.904 342.296 40.408 342.888 41.672C343.48 42.92 344.344 43.88 345.48 44.552C346.632 45.208 348.032 45.536 349.68 45.536C350.8 45.536 351.768 45.432 352.584 45.224C353.4 45.016 354.064 44.736 354.576 44.384C355.104 44.016 355.496 43.624 355.752 43.208C356.024 42.792 356.184 42.376 356.232 41.96H362.52C362.424 43.032 362.064 44.08 361.44 45.104C360.832 46.112 359.976 47.032 358.872 47.864C357.768 48.68 356.424 49.336 354.84 49.832C353.272 50.312 351.48 50.552 349.464 50.552C346.728 50.552 344.336 49.992 342.288 48.872C340.24 47.752 338.64 46.192 337.488 44.192C336.352 42.192 335.784 39.904 335.784 37.328C335.784 34.688 336.36 32.376 337.512 30.392C338.68 28.408 340.296 26.864 342.36 25.76C344.424 24.64 346.792 24.08 349.464 24.08C352.216 24.08 354.592 24.64 356.592 25.76C358.608 26.88 360.16 28.44 361.248 30.44C362.336 32.424 362.88 34.736 362.88 37.376C362.88 37.712 362.872 38.072 362.856 38.456C362.84 38.84 362.816 39.12 362.784 39.296H339.264Z" fill="black"/>
<path d="M396.068 47.48C397.572 47.624 398.892 47.904 400.028 48.32C401.164 48.736 402.052 49.352 402.692 50.168C403.332 51 403.652 52.104 403.652 53.48C403.652 55.016 403.132 56.344 402.092 57.464C401.052 58.584 399.524 59.448 397.508 60.056C395.508 60.664 393.044 60.968 390.116 60.968C385.86 60.968 382.588 60.352 380.3 59.12C378.012 57.904 376.868 56.248 376.868 54.152C376.868 53.56 376.94 53.024 377.084 52.544C377.228 52.064 377.404 51.664 377.612 51.344L383.396 52.184C383.3 52.312 383.204 52.512 383.108 52.784C383.012 53.072 382.964 53.416 382.964 53.816C382.964 54.808 383.628 55.52 384.956 55.952C386.3 56.4 388.084 56.624 390.308 56.624C391.94 56.624 393.3 56.512 394.388 56.288C395.492 56.064 396.324 55.744 396.884 55.328C397.46 54.912 397.748 54.424 397.748 53.864C397.748 53.032 397.372 52.496 396.62 52.256C395.868 52.016 394.972 51.856 393.932 51.776L384.26 50.888C382.532 50.712 381.108 50.2 379.988 49.352C378.884 48.504 378.332 47.384 378.332 45.992C378.332 45.144 378.556 44.36 379.004 43.64C379.468 42.92 379.996 42.32 380.588 41.84C381.18 41.344 381.684 41.04 382.1 40.928L385.7 42.704C385.364 42.752 384.964 42.968 384.5 43.352C384.052 43.736 383.828 44.192 383.828 44.72C383.828 45.216 384.052 45.632 384.5 45.968C384.948 46.288 385.812 46.512 387.092 46.64L396.068 47.48ZM398.924 24.512H404.588L402.284 34.4C401.852 36.256 401.156 37.92 400.196 39.392C399.236 40.864 397.956 42.024 396.356 42.872C394.756 43.72 392.74 44.144 390.308 44.144C387.78 44.144 385.596 43.736 383.756 42.92C381.932 42.088 380.524 40.928 379.532 39.44C378.54 37.936 378.044 36.208 378.044 34.256C378.044 32.256 378.548 30.496 379.556 28.976C380.58 27.44 381.98 26.24 383.756 25.376C385.548 24.512 387.572 24.08 389.828 24.08C391.652 24.08 393.292 24.384 394.748 24.992C396.204 25.584 397.364 26.36 398.228 27.32C399.108 28.28 399.58 29.304 399.644 30.392L398.228 30.656L398.924 24.512ZM390.284 39.272C391.516 39.272 392.58 39.072 393.476 38.672C394.372 38.272 395.068 37.696 395.564 36.944C396.06 36.176 396.308 35.248 396.308 34.16C396.308 33.088 396.06 32.168 395.564 31.4C395.068 30.632 394.372 30.048 393.476 29.648C392.58 29.232 391.524 29.024 390.308 29.024C389.124 29.024 388.076 29.232 387.164 29.648C386.252 30.064 385.532 30.664 385.004 31.448C384.492 32.216 384.236 33.136 384.236 34.208C384.236 35.28 384.484 36.2 384.98 36.968C385.492 37.72 386.196 38.296 387.092 38.696C388.004 39.08 389.068 39.272 390.284 39.272ZM415.967 50.528C414.063 50.528 412.391 50.232 410.951 49.64C409.511 49.032 408.383 48.16 407.567 47.024C406.751 45.888 406.343 44.52 406.343 42.92C406.343 41.176 406.815 39.744 407.759 38.624C408.719 37.488 410.007 36.616 411.623 36.008C413.239 35.384 415.031 34.984 416.999 34.808C419.911 34.52 421.943 34.248 423.095 33.992C424.263 33.72 424.847 33.288 424.847 32.696C424.847 32.68 424.847 32.672 424.847 32.672C424.847 32.656 424.847 32.648 424.847 32.648C424.847 31.528 424.343 30.664 423.335 30.056C422.327 29.448 420.903 29.144 419.063 29.144C417.127 29.144 415.639 29.488 414.599 30.176C413.575 30.848 413.063 31.92 413.063 33.392H406.823C406.823 31.392 407.351 29.704 408.407 28.328C409.479 26.936 410.943 25.88 412.799 25.16C414.655 24.44 416.759 24.08 419.111 24.08C421.303 24.08 423.311 24.408 425.135 25.064C426.959 25.72 428.423 26.712 429.527 28.04C430.631 29.368 431.183 31.024 431.183 33.008C431.183 33.344 431.183 33.68 431.183 34.016C431.183 34.352 431.183 34.688 431.183 35.024V44.624C431.183 45.232 431.199 45.832 431.231 46.424C431.279 47 431.367 47.52 431.495 47.984C431.655 48.496 431.847 48.928 432.071 49.28C432.295 49.632 432.471 49.872 432.599 50H426.359C426.247 49.888 426.087 49.672 425.879 49.352C425.687 49.016 425.511 48.632 425.351 48.2C425.191 47.72 425.071 47.208 424.991 46.664C424.911 46.104 424.871 45.488 424.871 44.816L426.119 45.68C425.639 46.656 424.903 47.512 423.911 48.248C422.935 48.968 421.767 49.528 420.407 49.928C419.047 50.328 417.567 50.528 415.967 50.528ZM417.503 45.56C418.815 45.56 420.031 45.336 421.151 44.888C422.271 44.44 423.175 43.752 423.863 42.824C424.551 41.88 424.895 40.672 424.895 39.2V35.792L426.431 37.52C425.407 37.904 424.175 38.224 422.735 38.48C421.295 38.72 419.839 38.912 418.367 39.056C416.479 39.232 415.055 39.56 414.095 40.04C413.151 40.52 412.679 41.304 412.679 42.392C412.679 43.448 413.079 44.24 413.879 44.768C414.679 45.296 415.887 45.56 417.503 45.56ZM452.307 50V39.656C452.307 38.712 452.307 37.888 452.307 37.184C452.307 36.464 452.307 35.864 452.307 35.384C452.307 34.76 452.267 34.112 452.187 33.44C452.107 32.752 451.931 32.12 451.659 31.544C451.387 30.968 450.963 30.504 450.387 30.152C449.827 29.784 449.051 29.6 448.059 29.6C447.099 29.6 446.283 29.8 445.611 30.2C444.955 30.584 444.411 31.104 443.979 31.76C443.563 32.4 443.259 33.136 443.067 33.968C442.875 34.784 442.779 35.624 442.779 36.488L440.667 35.072C440.667 32.976 441.059 31.104 441.843 29.456C442.627 27.808 443.739 26.504 445.179 25.544C446.635 24.568 448.355 24.08 450.339 24.08C452.387 24.08 454.011 24.512 455.211 25.376C456.411 26.224 457.267 27.376 457.779 28.832C458.307 30.288 458.571 31.92 458.571 33.728C458.571 34.4 458.571 35.296 458.571 36.416C458.571 37.52 458.571 38.824 458.571 40.328V50H452.307ZM436.467 50V24.512H442.779V50H436.467ZM468.051 50V39.68C468.051 38.672 468.051 37.816 468.051 37.112C468.051 36.408 468.051 35.816 468.051 35.336C468.051 34.664 468.011 33.992 467.931 33.32C467.851 32.632 467.675 32.016 467.403 31.472C467.131 30.912 466.707 30.464 466.131 30.128C465.555 29.776 464.771 29.6 463.779 29.6C462.803 29.6 461.979 29.792 461.307 30.176C460.651 30.56 460.123 31.072 459.723 31.712C459.323 32.352 459.027 33.072 458.835 33.872C458.659 34.672 458.571 35.472 458.571 36.272L456.459 34.88C456.459 32.848 456.843 31.016 457.611 29.384C458.379 27.752 459.483 26.464 460.923 25.52C462.363 24.56 464.075 24.08 466.059 24.08C468.059 24.08 469.667 24.488 470.883 25.304C472.099 26.12 472.979 27.24 473.523 28.664C474.083 30.072 474.363 31.68 474.363 33.488C474.363 34.192 474.363 35.088 474.363 36.176C474.363 37.264 474.363 38.552 474.363 40.04V50H468.051ZM482.212 39.296V34.808H500.044L499.324 36.008C499.324 35.912 499.324 35.808 499.324 35.696C499.324 35.568 499.324 35.464 499.324 35.384C499.324 34.28 499.076 33.248 498.58 32.288C498.084 31.312 497.332 30.528 496.324 29.936C495.316 29.328 494.036 29.024 492.484 29.024C490.948 29.024 489.612 29.352 488.476 30.008C487.356 30.648 486.484 31.576 485.86 32.792C485.252 34.008 484.948 35.464 484.948 37.16C484.948 38.904 485.244 40.408 485.836 41.672C486.428 42.92 487.292 43.88 488.428 44.552C489.58 45.208 490.98 45.536 492.628 45.536C493.748 45.536 494.716 45.432 495.532 45.224C496.348 45.016 497.012 44.736 497.524 44.384C498.052 44.016 498.444 43.624 498.7 43.208C498.972 42.792 499.132 42.376 499.18 41.96H505.468C505.372 43.032 505.012 44.08 504.388 45.104C503.78 46.112 502.924 47.032 501.82 47.864C500.716 48.68 499.372 49.336 497.788 49.832C496.22 50.312 494.428 50.552 492.412 50.552C489.676 50.552 487.284 49.992 485.236 48.872C483.188 47.752 481.588 46.192 480.436 44.192C479.3 42.192 478.732 39.904 478.732 37.328C478.732 34.688 479.308 32.376 480.46 30.392C481.628 28.408 483.244 26.864 485.308 25.76C487.372 24.64 489.74 24.08 492.412 24.08C495.164 24.08 497.54 24.64 499.54 25.76C501.556 26.88 503.108 28.44 504.196 30.44C505.284 32.424 505.828 34.736 505.828 37.376C505.828 37.712 505.82 38.072 505.804 38.456C505.788 38.84 505.764 39.12 505.732 39.296H482.212Z" fill="url(#paint0_linear_137_875)"/>
<defs>
<linearGradient id="paint0_linear_137_875" x1="382.659" y1="22" x2="516.194" y2="60.8029" gradientUnits="userSpaceOnUse">
<stop stop-color="#FEAA4C"/>
<stop offset="1" stop-color="#F66756"/>
</linearGradient>
</defs>
</svg>
