<svg width="599" height="74" viewBox="0 0 599 74" fill="none" xmlns="http://www.w3.org/2000/svg">
<path d="M599 61.2193C599 65.2063 573.945 61.2193 520.811 61.2193C459.02 61.2193 418 67.4759 418 61.2193C418 57.2322 459.02 54 520.811 54C582.603 54 599 57.2322 599 61.2193Z" fill="black"/>
<path d="M3.88608 52V12.175H11.0141V49.867L7.80108 46.114H26.1071V52H3.88608ZM33.8088 39.958V34.909H53.8698L53.0598 36.259C53.0598 36.151 53.0598 36.034 53.0598 35.908C53.0598 35.764 53.0598 35.647 53.0598 35.557C53.0598 34.315 52.7808 33.154 52.2228 32.074C51.6648 30.976 50.8188 30.094 49.6848 29.428C48.5508 28.744 47.1108 28.402 45.3648 28.402C43.6368 28.402 42.1338 28.771 40.8558 29.509C39.5958 30.229 38.6148 31.273 37.9128 32.641C37.2288 34.009 36.8868 35.647 36.8868 37.555C36.8868 39.517 37.2198 41.209 37.8858 42.631C38.5518 44.035 39.5238 45.115 40.8018 45.871C42.0978 46.609 43.6728 46.978 45.5268 46.978C46.7868 46.978 47.8758 46.861 48.7938 46.627C49.7118 46.393 50.4588 46.078 51.0348 45.682C51.6288 45.268 52.0698 44.827 52.3578 44.359C52.6638 43.891 52.8438 43.423 52.8978 42.955H59.9718C59.8638 44.161 59.4588 45.34 58.7568 46.492C58.0728 47.626 57.1098 48.661 55.8678 49.597C54.6258 50.515 53.1138 51.253 51.3318 51.811C49.5678 52.351 47.5518 52.621 45.2838 52.621C42.2058 52.621 39.5148 51.991 37.2108 50.731C34.9068 49.471 33.1068 47.716 31.8108 45.466C30.5328 43.216 29.8938 40.642 29.8938 37.744C29.8938 34.774 30.5418 32.173 31.8378 29.941C33.1518 27.709 34.9698 25.972 37.2918 24.73C39.6138 23.47 42.2778 22.84 45.2838 22.84C48.3798 22.84 51.0528 23.47 53.3028 24.73C55.5708 25.99 57.3168 27.745 58.5408 29.995C59.7648 32.227 60.3768 34.828 60.3768 37.798C60.3768 38.176 60.3678 38.581 60.3498 39.013C60.3318 39.445 60.3048 39.76 60.2688 39.958H33.8088ZM78.4428 52.54C77.4168 52.54 76.3728 52.441 75.3108 52.243C74.2488 52.045 73.2768 51.676 72.3948 51.136C71.5128 50.596 70.8018 49.804 70.2618 48.76C69.7218 47.716 69.4518 46.339 69.4518 44.629C69.4518 44.233 69.4518 43.837 69.4518 43.441C69.4518 43.027 69.4518 42.604 69.4518 42.172V28.996H62.6748V23.326H65.4288C66.3648 23.326 67.1028 23.29 67.6428 23.218C68.1828 23.128 68.5788 22.93 68.8308 22.624C69.0828 22.318 69.2448 21.841 69.3168 21.193C69.4068 20.527 69.4518 19.609 69.4518 18.439V13.876H76.5798V23.326H85.1118V28.996H76.5798V40.498C76.5798 40.84 76.5798 41.182 76.5798 41.524C76.5798 41.848 76.5798 42.163 76.5798 42.469C76.5798 43.801 76.7418 44.872 77.0658 45.682C77.3898 46.492 78.1548 46.897 79.3608 46.897C79.9368 46.897 80.4768 46.843 80.9808 46.735C81.5028 46.627 81.8898 46.519 82.1418 46.411V51.973C81.7998 52.099 81.3048 52.225 80.6568 52.351C80.0088 52.477 79.2708 52.54 78.4428 52.54ZM92.3908 18.79C91.2208 18.79 90.2758 18.448 89.5558 17.764C88.8538 17.08 88.5028 16.162 88.5028 15.01C88.5028 13.84 88.8898 12.877 89.6638 12.121C90.4378 11.365 91.5538 10.987 93.0118 10.987C94.4878 10.987 95.6128 11.482 96.3868 12.472C97.1788 13.444 97.5748 14.695 97.5748 16.225C97.5748 17.683 97.2148 18.979 96.4948 20.113C95.7748 21.229 94.8748 22.183 93.7948 22.975C92.7148 23.749 91.6348 24.352 90.5548 24.784L89.6638 23.029C90.4198 22.723 91.1578 22.309 91.8778 21.787C92.6158 21.265 93.2278 20.689 93.7138 20.059C94.1998 19.411 94.4428 18.754 94.4428 18.088C94.3708 18.196 94.1548 18.34 93.7948 18.52C93.4348 18.7 92.9668 18.79 92.3908 18.79ZM112.521 52.594C110.811 52.594 109.182 52.405 107.634 52.027C106.104 51.649 104.736 51.082 103.53 50.326C102.342 49.57 101.397 48.634 100.695 47.518C100.011 46.384 99.6686 45.079 99.6686 43.603C99.6686 43.495 99.6686 43.387 99.6686 43.279C99.6686 43.171 99.6686 43.072 99.6686 42.982H106.743C106.743 43.072 106.743 43.153 106.743 43.225C106.743 43.279 106.743 43.36 106.743 43.468C106.743 44.638 107.274 45.52 108.336 46.114C109.416 46.69 110.883 46.978 112.737 46.978C113.745 46.978 114.69 46.87 115.572 46.654C116.472 46.438 117.192 46.105 117.732 45.655C118.29 45.205 118.569 44.629 118.569 43.927C118.569 42.793 117.984 41.983 116.814 41.497C115.662 41.011 113.844 40.57 111.36 40.174C109.992 39.94 108.642 39.625 107.31 39.229C105.978 38.833 104.763 38.302 103.665 37.636C102.585 36.97 101.712 36.142 101.046 35.152C100.398 34.162 100.074 32.956 100.074 31.534C100.074 29.644 100.632 28.06 101.748 26.782C102.882 25.486 104.394 24.505 106.284 23.839C108.192 23.173 110.289 22.84 112.575 22.84C114.771 22.84 116.814 23.2 118.704 23.92C120.594 24.64 122.115 25.675 123.267 27.025C124.437 28.375 125.022 30.004 125.022 31.912C125.022 31.984 125.022 32.065 125.022 32.155C125.022 32.227 125.022 32.29 125.022 32.344H118.002C118.002 32.29 118.002 32.236 118.002 32.182C118.002 32.128 118.002 32.065 118.002 31.993C118.002 31.165 117.741 30.49 117.219 29.968C116.697 29.446 116.022 29.059 115.194 28.807C114.366 28.555 113.493 28.429 112.575 28.429C111.765 28.429 110.928 28.519 110.064 28.699C109.2 28.861 108.48 29.158 107.904 29.59C107.328 30.004 107.04 30.589 107.04 31.345C107.04 32.065 107.337 32.65 107.931 33.1C108.525 33.55 109.353 33.928 110.415 34.234C111.477 34.522 112.701 34.783 114.087 35.017C115.401 35.233 116.724 35.53 118.056 35.908C119.406 36.286 120.639 36.79 121.755 37.42C122.871 38.05 123.771 38.878 124.455 39.904C125.157 40.912 125.508 42.163 125.508 43.657C125.508 45.241 125.148 46.591 124.428 47.707C123.708 48.823 122.727 49.75 121.485 50.488C120.261 51.208 118.875 51.739 117.327 52.081C115.779 52.423 114.177 52.594 112.521 52.594ZM143.569 63.799V23.326H150.67V63.799H143.569ZM159.715 52.594C157.483 52.594 155.413 52.018 153.505 50.866C151.615 49.696 150.085 48.103 148.915 46.087C147.763 44.071 147.187 41.803 147.187 39.283C147.187 39.211 147.187 39.148 147.187 39.094C147.187 39.022 147.187 38.959 147.187 38.905L150.697 38.824C150.697 38.86 150.697 38.905 150.697 38.959C150.697 39.013 150.697 39.058 150.697 39.094C150.697 40.498 151.048 41.749 151.75 42.847C152.452 43.927 153.361 44.782 154.477 45.412C155.611 46.024 156.817 46.33 158.095 46.33C160.165 46.33 161.929 45.619 163.387 44.197C164.845 42.775 165.574 40.57 165.574 37.582C165.574 34.576 164.845 32.38 163.387 30.994C161.947 29.59 160.183 28.888 158.095 28.888C156.835 28.888 155.638 29.194 154.504 29.806C153.388 30.4 152.47 31.228 151.75 32.29C151.048 33.352 150.697 34.594 150.697 36.016L147.187 35.854C147.187 33.316 147.763 31.066 148.915 29.104C150.085 27.142 151.615 25.612 153.505 24.514C155.413 23.398 157.483 22.84 159.715 22.84C162.037 22.84 164.197 23.407 166.195 24.541C168.211 25.675 169.831 27.34 171.055 29.536C172.297 31.732 172.918 34.414 172.918 37.582C172.918 40.84 172.315 43.585 171.109 45.817C169.903 48.049 168.301 49.741 166.303 50.893C164.305 52.027 162.109 52.594 159.715 52.594ZM185.546 9.799V52H178.553V9.799H185.546ZM201.988 52.594C199.846 52.594 197.965 52.261 196.345 51.595C194.725 50.911 193.456 49.93 192.538 48.652C191.62 47.374 191.161 45.835 191.161 44.035C191.161 42.073 191.692 40.462 192.754 39.202C193.834 37.924 195.283 36.943 197.101 36.259C198.919 35.557 200.935 35.107 203.149 34.909C206.425 34.585 208.711 34.279 210.007 33.991C211.321 33.685 211.978 33.199 211.978 32.533C211.978 32.515 211.978 32.506 211.978 32.506C211.978 32.488 211.978 32.479 211.978 32.479C211.978 31.219 211.411 30.247 210.277 29.563C209.143 28.879 207.541 28.537 205.471 28.537C203.293 28.537 201.619 28.924 200.449 29.698C199.297 30.454 198.721 31.66 198.721 33.316H191.701C191.701 31.066 192.295 29.167 193.483 27.619C194.689 26.053 196.336 24.865 198.424 24.055C200.512 23.245 202.879 22.84 205.525 22.84C207.991 22.84 210.25 23.209 212.302 23.947C214.354 24.685 216.001 25.801 217.243 27.295C218.485 28.789 219.106 30.652 219.106 32.884C219.106 33.262 219.106 33.64 219.106 34.018C219.106 34.396 219.106 34.774 219.106 35.152V45.952C219.106 46.636 219.124 47.311 219.16 47.977C219.214 48.625 219.313 49.21 219.457 49.732C219.637 50.308 219.853 50.794 220.105 51.19C220.357 51.586 220.555 51.856 220.699 52H213.679C213.553 51.874 213.373 51.631 213.139 51.271C212.923 50.893 212.725 50.461 212.545 49.975C212.365 49.435 212.23 48.859 212.14 48.247C212.05 47.617 212.005 46.924 212.005 46.168L213.409 47.14C212.869 48.238 212.041 49.201 210.925 50.029C209.827 50.839 208.513 51.469 206.983 51.919C205.453 52.369 203.788 52.594 201.988 52.594ZM203.716 47.005C205.192 47.005 206.56 46.753 207.82 46.249C209.08 45.745 210.097 44.971 210.871 43.927C211.645 42.865 212.032 41.506 212.032 39.85V36.016L213.76 37.96C212.608 38.392 211.222 38.752 209.602 39.04C207.982 39.31 206.344 39.526 204.688 39.688C202.564 39.886 200.962 40.255 199.882 40.795C198.82 41.335 198.289 42.217 198.289 43.441C198.289 44.629 198.739 45.52 199.639 46.114C200.539 46.708 201.898 47.005 203.716 47.005ZM225.965 64.312C225.119 64.312 224.363 64.267 223.697 64.177C223.031 64.105 222.617 64.033 222.455 63.961V58.426C222.689 58.534 223.085 58.615 223.643 58.669C224.219 58.741 224.813 58.777 225.425 58.777C226.415 58.777 227.27 58.579 227.99 58.183C228.728 57.787 229.358 57.238 229.88 56.536C230.402 55.852 230.816 55.051 231.122 54.133L231.743 52.324L221.861 23.326H229.286L236.063 47.248H235.199L241.814 23.326H249.104L239.06 53.755C238.358 55.861 237.503 57.706 236.495 59.29C235.505 60.874 234.182 62.107 232.526 62.989C230.87 63.871 228.683 64.312 225.965 64.312ZM277.578 52.594C275.868 52.594 274.239 52.405 272.691 52.027C271.161 51.649 269.793 51.082 268.587 50.326C267.399 49.57 266.454 48.634 265.752 47.518C265.068 46.384 264.726 45.079 264.726 43.603C264.726 43.495 264.726 43.387 264.726 43.279C264.726 43.171 264.726 43.072 264.726 42.982H271.8C271.8 43.072 271.8 43.153 271.8 43.225C271.8 43.279 271.8 43.36 271.8 43.468C271.8 44.638 272.331 45.52 273.393 46.114C274.473 46.69 275.94 46.978 277.794 46.978C278.802 46.978 279.747 46.87 280.629 46.654C281.529 46.438 282.249 46.105 282.789 45.655C283.347 45.205 283.626 44.629 283.626 43.927C283.626 42.793 283.041 41.983 281.871 41.497C280.719 41.011 278.901 40.57 276.417 40.174C275.049 39.94 273.699 39.625 272.367 39.229C271.035 38.833 269.82 38.302 268.722 37.636C267.642 36.97 266.769 36.142 266.103 35.152C265.455 34.162 265.131 32.956 265.131 31.534C265.131 29.644 265.689 28.06 266.805 26.782C267.939 25.486 269.451 24.505 271.341 23.839C273.249 23.173 275.346 22.84 277.632 22.84C279.828 22.84 281.871 23.2 283.761 23.92C285.651 24.64 287.172 25.675 288.324 27.025C289.494 28.375 290.079 30.004 290.079 31.912C290.079 31.984 290.079 32.065 290.079 32.155C290.079 32.227 290.079 32.29 290.079 32.344H283.059C283.059 32.29 283.059 32.236 283.059 32.182C283.059 32.128 283.059 32.065 283.059 31.993C283.059 31.165 282.798 30.49 282.276 29.968C281.754 29.446 281.079 29.059 280.251 28.807C279.423 28.555 278.55 28.429 277.632 28.429C276.822 28.429 275.985 28.519 275.121 28.699C274.257 28.861 273.537 29.158 272.961 29.59C272.385 30.004 272.097 30.589 272.097 31.345C272.097 32.065 272.394 32.65 272.988 33.1C273.582 33.55 274.41 33.928 275.472 34.234C276.534 34.522 277.758 34.783 279.144 35.017C280.458 35.233 281.781 35.53 283.113 35.908C284.463 36.286 285.696 36.79 286.812 37.42C287.928 38.05 288.828 38.878 289.512 39.904C290.214 40.912 290.565 42.163 290.565 43.657C290.565 45.241 290.205 46.591 289.485 47.707C288.765 48.823 287.784 49.75 286.542 50.488C285.318 51.208 283.932 51.739 282.384 52.081C280.836 52.423 279.234 52.594 277.578 52.594ZM309.869 52.567C306.845 52.567 304.181 51.937 301.877 50.677C299.573 49.399 297.764 47.635 296.45 45.385C295.154 43.135 294.506 40.561 294.506 37.663C294.506 34.747 295.154 32.182 296.45 29.968C297.764 27.736 299.573 25.99 301.877 24.73C304.181 23.47 306.845 22.84 309.869 22.84C312.893 22.84 315.557 23.47 317.861 24.73C320.165 25.99 321.965 27.736 323.261 29.968C324.575 32.182 325.232 34.747 325.232 37.663C325.232 40.561 324.575 43.135 323.261 45.385C321.965 47.635 320.165 49.399 317.861 50.677C315.557 51.937 312.893 52.567 309.869 52.567ZM309.869 46.762C311.507 46.762 312.938 46.384 314.162 45.628C315.386 44.872 316.34 43.819 317.024 42.469C317.708 41.101 318.05 39.499 318.05 37.663C318.05 35.827 317.708 34.243 317.024 32.911C316.34 31.561 315.386 30.517 314.162 29.779C312.938 29.041 311.507 28.672 309.869 28.672C308.249 28.672 306.818 29.041 305.576 29.779C304.352 30.517 303.398 31.561 302.714 32.911C302.03 34.243 301.688 35.827 301.688 37.663C301.688 39.499 302.03 41.101 302.714 42.469C303.398 43.819 304.352 44.872 305.576 45.628C306.818 46.384 308.249 46.762 309.869 46.762ZM348.279 52V40.363C348.279 39.301 348.279 38.374 348.279 37.582C348.279 36.772 348.279 36.097 348.279 35.557C348.279 34.855 348.234 34.126 348.144 33.37C348.054 32.596 347.856 31.885 347.55 31.237C347.244 30.589 346.767 30.067 346.119 29.671C345.489 29.257 344.616 29.05 343.5 29.05C342.42 29.05 341.502 29.275 340.746 29.725C340.008 30.157 339.396 30.742 338.91 31.48C338.442 32.2 338.1 33.028 337.884 33.964C337.668 34.882 337.56 35.827 337.56 36.799L335.184 35.206C335.184 32.848 335.625 30.742 336.507 28.888C337.389 27.034 338.64 25.567 340.26 24.487C341.898 23.389 343.833 22.84 346.065 22.84C348.369 22.84 350.196 23.326 351.546 24.298C352.896 25.252 353.859 26.548 354.435 28.186C355.029 29.824 355.326 31.66 355.326 33.694C355.326 34.45 355.326 35.458 355.326 36.718C355.326 37.96 355.326 39.427 355.326 41.119V52H348.279ZM330.459 52V23.326H337.56V52H330.459ZM365.991 52V40.39C365.991 39.256 365.991 38.293 365.991 37.501C365.991 36.709 365.991 36.043 365.991 35.503C365.991 34.747 365.946 33.991 365.856 33.235C365.766 32.461 365.568 31.768 365.262 31.156C364.956 30.526 364.479 30.022 363.831 29.644C363.183 29.248 362.301 29.05 361.185 29.05C360.087 29.05 359.16 29.266 358.404 29.698C357.666 30.13 357.072 30.706 356.622 31.426C356.172 32.146 355.839 32.956 355.623 33.856C355.425 34.756 355.326 35.656 355.326 36.556L352.95 34.99C352.95 32.704 353.382 30.643 354.246 28.807C355.11 26.971 356.352 25.522 357.972 24.46C359.592 23.38 361.518 22.84 363.75 22.84C366 22.84 367.809 23.299 369.177 24.217C370.545 25.135 371.535 26.395 372.147 27.997C372.777 29.581 373.092 31.39 373.092 33.424C373.092 34.216 373.092 35.224 373.092 36.448C373.092 37.672 373.092 39.121 373.092 40.795V52H365.991ZM381.922 39.958V34.909H401.983L401.173 36.259C401.173 36.151 401.173 36.034 401.173 35.908C401.173 35.764 401.173 35.647 401.173 35.557C401.173 34.315 400.894 33.154 400.336 32.074C399.778 30.976 398.932 30.094 397.798 29.428C396.664 28.744 395.224 28.402 393.478 28.402C391.75 28.402 390.247 28.771 388.969 29.509C387.709 30.229 386.728 31.273 386.026 32.641C385.342 34.009 385 35.647 385 37.555C385 39.517 385.333 41.209 385.999 42.631C386.665 44.035 387.637 45.115 388.915 45.871C390.211 46.609 391.786 46.978 393.64 46.978C394.9 46.978 395.989 46.861 396.907 46.627C397.825 46.393 398.572 46.078 399.148 45.682C399.742 45.268 400.183 44.827 400.471 44.359C400.777 43.891 400.957 43.423 401.011 42.955H408.085C407.977 44.161 407.572 45.34 406.87 46.492C406.186 47.626 405.223 48.661 403.981 49.597C402.739 50.515 401.227 51.253 399.445 51.811C397.681 52.351 395.665 52.621 393.397 52.621C390.319 52.621 387.628 51.991 385.324 50.731C383.02 49.471 381.22 47.716 379.924 45.466C378.646 43.216 378.007 40.642 378.007 37.744C378.007 34.774 378.655 32.173 379.951 29.941C381.265 27.709 383.083 25.972 385.405 24.73C387.727 23.47 390.391 22.84 393.397 22.84C396.493 22.84 399.166 23.47 401.416 24.73C403.684 25.99 405.43 27.745 406.654 29.995C407.878 32.227 408.49 34.828 408.49 37.798C408.49 38.176 408.481 38.581 408.463 39.013C408.445 39.445 408.418 39.76 408.382 39.958H381.922Z" fill="black"/>
<path d="M445.826 49.165C447.518 49.327 449.003 49.642 450.281 50.11C451.559 50.578 452.558 51.271 453.278 52.189C453.998 53.125 454.358 54.367 454.358 55.915C454.358 57.643 453.773 59.137 452.603 60.397C451.433 61.657 449.714 62.629 447.446 63.313C445.196 63.997 442.424 64.339 439.13 64.339C434.342 64.339 430.661 63.646 428.087 62.26C425.513 60.892 424.226 59.029 424.226 56.671C424.226 56.005 424.307 55.402 424.469 54.862C424.631 54.322 424.829 53.872 425.063 53.512L431.57 54.457C431.462 54.601 431.354 54.826 431.246 55.132C431.138 55.456 431.084 55.843 431.084 56.293C431.084 57.409 431.831 58.21 433.325 58.696C434.837 59.2 436.844 59.452 439.346 59.452C441.182 59.452 442.712 59.326 443.936 59.074C445.178 58.822 446.114 58.462 446.744 57.994C447.392 57.526 447.716 56.977 447.716 56.347C447.716 55.411 447.293 54.808 446.447 54.538C445.601 54.268 444.593 54.088 443.423 53.998L432.542 52.999C430.598 52.801 428.996 52.225 427.736 51.271C426.494 50.317 425.873 49.057 425.873 47.491C425.873 46.537 426.125 45.655 426.629 44.845C427.151 44.035 427.745 43.36 428.411 42.82C429.077 42.262 429.644 41.92 430.112 41.794L434.162 43.792C433.784 43.846 433.334 44.089 432.812 44.521C432.308 44.953 432.056 45.466 432.056 46.06C432.056 46.618 432.308 47.086 432.812 47.464C433.316 47.824 434.288 48.076 435.728 48.22L445.826 49.165ZM449.039 23.326H455.411L452.819 34.45C452.333 36.538 451.55 38.41 450.47 40.066C449.39 41.722 447.95 43.027 446.15 43.981C444.35 44.935 442.082 45.412 439.346 45.412C436.502 45.412 434.045 44.953 431.975 44.035C429.923 43.099 428.339 41.794 427.223 40.12C426.107 38.428 425.549 36.484 425.549 34.288C425.549 32.038 426.116 30.058 427.25 28.348C428.402 26.62 429.977 25.27 431.975 24.298C433.991 23.326 436.268 22.84 438.806 22.84C440.858 22.84 442.703 23.182 444.341 23.866C445.979 24.532 447.284 25.405 448.256 26.485C449.246 27.565 449.777 28.717 449.849 29.941L448.256 30.238L449.039 23.326ZM439.319 39.931C440.705 39.931 441.902 39.706 442.91 39.256C443.918 38.806 444.701 38.158 445.259 37.312C445.817 36.448 446.096 35.404 446.096 34.18C446.096 32.974 445.817 31.939 445.259 31.075C444.701 30.211 443.918 29.554 442.91 29.104C441.902 28.636 440.714 28.402 439.346 28.402C438.014 28.402 436.835 28.636 435.809 29.104C434.783 29.572 433.973 30.247 433.379 31.129C432.803 31.993 432.515 33.028 432.515 34.234C432.515 35.44 432.794 36.475 433.352 37.339C433.928 38.185 434.72 38.833 435.728 39.283C436.754 39.715 437.951 39.931 439.319 39.931ZM468.213 52.594C466.071 52.594 464.19 52.261 462.57 51.595C460.95 50.911 459.681 49.93 458.763 48.652C457.845 47.374 457.386 45.835 457.386 44.035C457.386 42.073 457.917 40.462 458.979 39.202C460.059 37.924 461.508 36.943 463.326 36.259C465.144 35.557 467.16 35.107 469.374 34.909C472.65 34.585 474.936 34.279 476.232 33.991C477.546 33.685 478.203 33.199 478.203 32.533C478.203 32.515 478.203 32.506 478.203 32.506C478.203 32.488 478.203 32.479 478.203 32.479C478.203 31.219 477.636 30.247 476.502 29.563C475.368 28.879 473.766 28.537 471.696 28.537C469.518 28.537 467.844 28.924 466.674 29.698C465.522 30.454 464.946 31.66 464.946 33.316H457.926C457.926 31.066 458.52 29.167 459.708 27.619C460.914 26.053 462.561 24.865 464.649 24.055C466.737 23.245 469.104 22.84 471.75 22.84C474.216 22.84 476.475 23.209 478.527 23.947C480.579 24.685 482.226 25.801 483.468 27.295C484.71 28.789 485.331 30.652 485.331 32.884C485.331 33.262 485.331 33.64 485.331 34.018C485.331 34.396 485.331 34.774 485.331 35.152V45.952C485.331 46.636 485.349 47.311 485.385 47.977C485.439 48.625 485.538 49.21 485.682 49.732C485.862 50.308 486.078 50.794 486.33 51.19C486.582 51.586 486.78 51.856 486.924 52H479.904C479.778 51.874 479.598 51.631 479.364 51.271C479.148 50.893 478.95 50.461 478.77 49.975C478.59 49.435 478.455 48.859 478.365 48.247C478.275 47.617 478.23 46.924 478.23 46.168L479.634 47.14C479.094 48.238 478.266 49.201 477.15 50.029C476.052 50.839 474.738 51.469 473.208 51.919C471.678 52.369 470.013 52.594 468.213 52.594ZM469.941 47.005C471.417 47.005 472.785 46.753 474.045 46.249C475.305 45.745 476.322 44.971 477.096 43.927C477.87 42.865 478.257 41.506 478.257 39.85V36.016L479.985 37.96C478.833 38.392 477.447 38.752 475.827 39.04C474.207 39.31 472.569 39.526 470.913 39.688C468.789 39.886 467.187 40.255 466.107 40.795C465.045 41.335 464.514 42.217 464.514 43.441C464.514 44.629 464.964 45.52 465.864 46.114C466.764 46.708 468.123 47.005 469.941 47.005ZM509.096 52V40.363C509.096 39.301 509.096 38.374 509.096 37.582C509.096 36.772 509.096 36.097 509.096 35.557C509.096 34.855 509.051 34.126 508.961 33.37C508.871 32.596 508.673 31.885 508.367 31.237C508.061 30.589 507.584 30.067 506.936 29.671C506.306 29.257 505.433 29.05 504.317 29.05C503.237 29.05 502.319 29.275 501.563 29.725C500.825 30.157 500.213 30.742 499.727 31.48C499.259 32.2 498.917 33.028 498.701 33.964C498.485 34.882 498.377 35.827 498.377 36.799L496.001 35.206C496.001 32.848 496.442 30.742 497.324 28.888C498.206 27.034 499.457 25.567 501.077 24.487C502.715 23.389 504.65 22.84 506.882 22.84C509.186 22.84 511.013 23.326 512.363 24.298C513.713 25.252 514.676 26.548 515.252 28.186C515.846 29.824 516.143 31.66 516.143 33.694C516.143 34.45 516.143 35.458 516.143 36.718C516.143 37.96 516.143 39.427 516.143 41.119V52H509.096ZM491.276 52V23.326H498.377V52H491.276ZM526.808 52V40.39C526.808 39.256 526.808 38.293 526.808 37.501C526.808 36.709 526.808 36.043 526.808 35.503C526.808 34.747 526.763 33.991 526.673 33.235C526.583 32.461 526.385 31.768 526.079 31.156C525.773 30.526 525.296 30.022 524.648 29.644C524 29.248 523.118 29.05 522.002 29.05C520.904 29.05 519.977 29.266 519.221 29.698C518.483 30.13 517.889 30.706 517.439 31.426C516.989 32.146 516.656 32.956 516.44 33.856C516.242 34.756 516.143 35.656 516.143 36.556L513.767 34.99C513.767 32.704 514.199 30.643 515.063 28.807C515.927 26.971 517.169 25.522 518.789 24.46C520.409 23.38 522.335 22.84 524.567 22.84C526.817 22.84 528.626 23.299 529.994 24.217C531.362 25.135 532.352 26.395 532.964 27.997C533.594 29.581 533.909 31.39 533.909 33.424C533.909 34.216 533.909 35.224 533.909 36.448C533.909 37.672 533.909 39.121 533.909 40.795V52H526.808ZM542.739 39.958V34.909H562.8L561.99 36.259C561.99 36.151 561.99 36.034 561.99 35.908C561.99 35.764 561.99 35.647 561.99 35.557C561.99 34.315 561.711 33.154 561.153 32.074C560.595 30.976 559.749 30.094 558.615 29.428C557.481 28.744 556.041 28.402 554.295 28.402C552.567 28.402 551.064 28.771 549.786 29.509C548.526 30.229 547.545 31.273 546.843 32.641C546.159 34.009 545.817 35.647 545.817 37.555C545.817 39.517 546.15 41.209 546.816 42.631C547.482 44.035 548.454 45.115 549.732 45.871C551.028 46.609 552.603 46.978 554.457 46.978C555.717 46.978 556.806 46.861 557.724 46.627C558.642 46.393 559.389 46.078 559.965 45.682C560.559 45.268 561 44.827 561.288 44.359C561.594 43.891 561.774 43.423 561.828 42.955H568.902C568.794 44.161 568.389 45.34 567.687 46.492C567.003 47.626 566.04 48.661 564.798 49.597C563.556 50.515 562.044 51.253 560.262 51.811C558.498 52.351 556.482 52.621 554.214 52.621C551.136 52.621 548.445 51.991 546.141 50.731C543.837 49.471 542.037 47.716 540.741 45.466C539.463 43.216 538.824 40.642 538.824 37.744C538.824 34.774 539.472 32.173 540.768 29.941C542.082 27.709 543.9 25.972 546.222 24.73C548.544 23.47 551.208 22.84 554.214 22.84C557.31 22.84 559.983 23.47 562.233 24.73C564.501 25.99 566.247 27.745 567.471 29.995C568.695 32.227 569.307 34.828 569.307 37.798C569.307 38.176 569.298 38.581 569.28 39.013C569.262 39.445 569.235 39.76 569.199 39.958H542.739Z" fill="url(#paint0_linear_137_590)"/>
<defs>
<linearGradient id="paint0_linear_137_590" x1="430.868" y1="22" x2="578.154" y2="70.1909" gradientUnits="userSpaceOnUse">
<stop stop-color="#FEAA4C"/>
<stop offset="1" stop-color="#F66756"/>
</linearGradient>
</defs>
</svg>
