<svg width="641" height="74" viewBox="0 0 641 74" fill="none" xmlns="http://www.w3.org/2000/svg">
<path d="M641 62.5C641 66.6421 612 62.5 550.5 62.5C478.979 62.5 431.5 69 431.5 62.5C431.5 58.3579 478.979 55 550.5 55C622.021 55 641 58.3579 641 62.5Z" fill="black"/>
<path d="M3.98874 53V10.225H11.6447V50.709L8.19374 46.678H27.8557V53H3.98874ZM36.128 40.066V34.643H57.675L56.805 36.093C56.805 35.977 56.805 35.8513 56.805 35.716C56.805 35.5613 56.805 35.4357 56.805 35.339C56.805 34.005 56.5053 32.758 55.906 31.598C55.3067 30.4187 54.398 29.4713 53.18 28.756C51.962 28.0213 50.4153 27.654 48.54 27.654C46.684 27.654 45.0697 28.0503 43.697 28.843C42.3437 29.6163 41.29 30.7377 40.536 32.207C39.8013 33.6763 39.434 35.4357 39.434 37.485C39.434 39.5923 39.7917 41.4097 40.507 42.937C41.2223 44.445 42.2663 45.605 43.639 46.417C45.031 47.2097 46.7227 47.606 48.714 47.606C50.0673 47.606 51.237 47.4803 52.223 47.229C53.209 46.9777 54.0113 46.6393 54.63 46.214C55.268 45.7693 55.7417 45.2957 56.051 44.793C56.3797 44.2903 56.573 43.7877 56.631 43.285H64.229C64.113 44.5803 63.678 45.8467 62.924 47.084C62.1893 48.302 61.155 49.4137 59.821 50.419C58.487 51.405 56.863 52.1977 54.949 52.797C53.0543 53.377 50.889 53.667 48.453 53.667C45.147 53.667 42.2567 52.9903 39.782 51.637C37.3073 50.2837 35.374 48.3987 33.982 45.982C32.6093 43.5653 31.923 40.8007 31.923 37.688C31.923 34.498 32.619 31.7043 34.011 29.307C35.4223 26.9097 37.375 25.044 39.869 23.71C42.363 22.3567 45.2243 21.68 48.453 21.68C51.7783 21.68 54.6493 22.3567 57.066 23.71C59.502 25.0633 61.3773 26.9483 62.692 29.365C64.0067 31.7623 64.664 34.556 64.664 37.746C64.664 38.152 64.6543 38.587 64.635 39.051C64.6157 39.515 64.5867 39.8533 64.548 40.066H36.128ZM84.0682 53.58C82.9662 53.58 81.8448 53.4737 80.7042 53.261C79.5635 53.0483 78.5195 52.652 77.5722 52.072C76.6248 51.492 75.8612 50.6413 75.2812 49.52C74.7012 48.3987 74.4112 46.9197 74.4112 45.083C74.4112 44.6577 74.4112 44.2323 74.4112 43.807C74.4112 43.3623 74.4112 42.908 74.4112 42.444V28.292H67.1322V22.202H70.0902C71.0955 22.202 71.8882 22.1633 72.4682 22.086C73.0482 21.9893 73.4735 21.7767 73.7442 21.448C74.0148 21.1193 74.1888 20.607 74.2662 19.911C74.3628 19.1957 74.4112 18.2097 74.4112 16.953V12.052H82.0672V22.202H91.2312V28.292H82.0672V40.646C82.0672 41.0133 82.0672 41.3807 82.0672 41.748C82.0672 42.096 82.0672 42.4343 82.0672 42.763C82.0672 44.1937 82.2412 45.344 82.5892 46.214C82.9372 47.084 83.7588 47.519 85.0542 47.519C85.6728 47.519 86.2528 47.461 86.7942 47.345C87.3548 47.229 87.7705 47.113 88.0412 46.997V52.971C87.6738 53.1063 87.1422 53.2417 86.4462 53.377C85.7502 53.5123 84.9575 53.58 84.0682 53.58ZM99.0494 17.33C97.7927 17.33 96.7777 16.9627 96.0044 16.228C95.2504 15.4933 94.8734 14.5073 94.8734 13.27C94.8734 12.0133 95.2891 10.979 96.1204 10.167C96.9517 9.355 98.1504 8.949 99.7164 8.949C101.302 8.949 102.51 9.48066 103.341 10.544C104.192 11.588 104.617 12.9317 104.617 14.575C104.617 16.141 104.231 17.533 103.457 18.751C102.684 19.9497 101.717 20.9743 100.557 21.825C99.3974 22.6563 98.2374 23.304 97.0774 23.768L96.1204 21.883C96.9324 21.5543 97.7251 21.1097 98.4984 20.549C99.2911 19.9883 99.9484 19.3697 100.47 18.693C100.992 17.997 101.253 17.2913 101.253 16.576C101.176 16.692 100.944 16.8467 100.557 17.04C100.171 17.2333 99.6681 17.33 99.0494 17.33ZM120.67 53.638C118.834 53.638 117.084 53.435 115.421 53.029C113.778 52.623 112.309 52.014 111.013 51.202C109.737 50.39 108.722 49.3847 107.968 48.186C107.234 46.968 106.866 45.5663 106.866 43.981C106.866 43.865 106.866 43.749 106.866 43.633C106.866 43.517 106.866 43.4107 106.866 43.314H114.464C114.464 43.4107 114.464 43.4977 114.464 43.575C114.464 43.633 114.464 43.72 114.464 43.836C114.464 45.0927 115.035 46.04 116.175 46.678C117.335 47.2967 118.911 47.606 120.902 47.606C121.985 47.606 123 47.49 123.947 47.258C124.914 47.026 125.687 46.6683 126.267 46.185C126.867 45.7017 127.166 45.083 127.166 44.329C127.166 43.111 126.538 42.241 125.281 41.719C124.044 41.197 122.091 40.7233 119.423 40.298C117.954 40.0467 116.504 39.7083 115.073 39.283C113.643 38.8577 112.338 38.2873 111.158 37.572C109.998 36.8567 109.061 35.9673 108.345 34.904C107.649 33.8407 107.301 32.5453 107.301 31.018C107.301 28.988 107.901 27.2867 109.099 25.914C110.317 24.522 111.941 23.4683 113.971 22.753C116.021 22.0377 118.273 21.68 120.728 21.68C123.087 21.68 125.281 22.0667 127.311 22.84C129.341 23.6133 130.975 24.725 132.212 26.175C133.469 27.625 134.097 29.3747 134.097 31.424C134.097 31.5013 134.097 31.5883 134.097 31.685C134.097 31.7623 134.097 31.83 134.097 31.888H126.557C126.557 31.83 126.557 31.772 126.557 31.714C126.557 31.656 126.557 31.5883 126.557 31.511C126.557 30.6217 126.277 29.8967 125.716 29.336C125.156 28.7753 124.431 28.3597 123.541 28.089C122.652 27.8183 121.714 27.683 120.728 27.683C119.858 27.683 118.959 27.7797 118.031 27.973C117.103 28.147 116.33 28.466 115.711 28.93C115.093 29.3747 114.783 30.003 114.783 30.815C114.783 31.5883 115.102 32.2167 115.74 32.7C116.378 33.1833 117.268 33.5893 118.408 33.918C119.549 34.2273 120.864 34.5077 122.352 34.759C123.764 34.991 125.185 35.31 126.615 35.716C128.065 36.122 129.39 36.6633 130.588 37.34C131.787 38.0167 132.754 38.906 133.488 40.008C134.242 41.0907 134.619 42.4343 134.619 44.039C134.619 45.7403 134.233 47.1903 133.459 48.389C132.686 49.5877 131.632 50.5833 130.298 51.376C128.984 52.1493 127.495 52.7197 125.832 53.087C124.17 53.4543 122.449 53.638 120.67 53.638ZM154.019 65.673V22.202H161.646V65.673H154.019ZM171.361 53.638C168.964 53.638 166.74 53.0193 164.691 51.782C162.661 50.5253 161.018 48.8143 159.761 46.649C158.524 44.4837 157.905 42.0477 157.905 39.341C157.905 39.2637 157.905 39.196 157.905 39.138C157.905 39.0607 157.905 38.993 157.905 38.935L161.675 38.848C161.675 38.8867 161.675 38.935 161.675 38.993C161.675 39.051 161.675 39.0993 161.675 39.138C161.675 40.646 162.052 41.9897 162.806 43.169C163.56 44.329 164.536 45.2473 165.735 45.924C166.953 46.5813 168.248 46.91 169.621 46.91C171.844 46.91 173.739 46.1463 175.305 44.619C176.871 43.0917 177.654 40.7233 177.654 37.514C177.654 34.2853 176.871 31.9267 175.305 30.438C173.758 28.93 171.864 28.176 169.621 28.176C168.268 28.176 166.982 28.5047 165.764 29.162C164.565 29.8 163.579 30.6893 162.806 31.83C162.052 32.9707 161.675 34.3047 161.675 35.832L157.905 35.658C157.905 32.932 158.524 30.5153 159.761 28.408C161.018 26.3007 162.661 24.6573 164.691 23.478C166.74 22.2793 168.964 21.68 171.361 21.68C173.855 21.68 176.175 22.289 178.321 23.507C180.486 24.725 182.226 26.5133 183.541 28.872C184.875 31.2307 185.542 34.1113 185.542 37.514C185.542 41.0133 184.894 43.9617 183.599 46.359C182.304 48.7563 180.583 50.5737 178.437 51.811C176.291 53.029 173.932 53.638 171.361 53.638ZM199.105 7.673V53H191.594V7.673H199.105ZM216.765 53.638C214.464 53.638 212.444 53.2803 210.704 52.565C208.964 51.8303 207.601 50.7767 206.615 49.404C205.629 48.0313 205.136 46.3783 205.136 44.445C205.136 42.3377 205.706 40.6073 206.847 39.254C208.007 37.8813 209.563 36.8277 211.516 36.093C213.469 35.339 215.634 34.8557 218.012 34.643C221.531 34.295 223.986 33.9663 225.378 33.657C226.789 33.3283 227.495 32.8063 227.495 32.091C227.495 32.0717 227.495 32.062 227.495 32.062C227.495 32.0427 227.495 32.033 227.495 32.033C227.495 30.6797 226.886 29.6357 225.668 28.901C224.45 28.1663 222.729 27.799 220.506 27.799C218.167 27.799 216.369 28.2147 215.112 29.046C213.875 29.858 213.256 31.1533 213.256 32.932H205.716C205.716 30.5153 206.354 28.4757 207.63 26.813C208.925 25.131 210.694 23.855 212.937 22.985C215.18 22.115 217.722 21.68 220.564 21.68C223.213 21.68 225.639 22.0763 227.843 22.869C230.047 23.6617 231.816 24.8603 233.15 26.465C234.484 28.0697 235.151 30.0707 235.151 32.468C235.151 32.874 235.151 33.28 235.151 33.686C235.151 34.092 235.151 34.498 235.151 34.904V46.504C235.151 47.2387 235.17 47.9637 235.209 48.679C235.267 49.375 235.373 50.0033 235.528 50.564C235.721 51.1827 235.953 51.7047 236.224 52.13C236.495 52.5553 236.707 52.8453 236.862 53H229.322C229.187 52.8647 228.993 52.6037 228.742 52.217C228.51 51.811 228.297 51.347 228.104 50.825C227.911 50.245 227.766 49.6263 227.669 48.969C227.572 48.2923 227.524 47.548 227.524 46.736L229.032 47.78C228.452 48.9593 227.563 49.9937 226.364 50.883C225.185 51.753 223.773 52.4297 222.13 52.913C220.487 53.3963 218.698 53.638 216.765 53.638ZM218.621 47.635C220.206 47.635 221.676 47.3643 223.029 46.823C224.382 46.2817 225.475 45.4503 226.306 44.329C227.137 43.1883 227.553 41.7287 227.553 39.95V35.832L229.409 37.92C228.172 38.384 226.683 38.7707 224.943 39.08C223.203 39.37 221.444 39.602 219.665 39.776C217.384 39.9887 215.663 40.385 214.503 40.965C213.362 41.545 212.792 42.4923 212.792 43.807C212.792 45.083 213.275 46.04 214.242 46.678C215.209 47.316 216.668 47.635 218.621 47.635ZM242.518 66.224C241.609 66.224 240.797 66.1757 240.082 66.079C239.366 66.0017 238.922 65.9243 238.748 65.847V59.902C238.999 60.018 239.424 60.105 240.024 60.163C240.642 60.2403 241.28 60.279 241.938 60.279C243.001 60.279 243.919 60.0663 244.693 59.641C245.485 59.2157 246.162 58.626 246.723 57.872C247.283 57.1373 247.728 56.277 248.057 55.291L248.724 53.348L238.11 22.202H246.085L253.364 47.896H252.436L259.541 22.202H267.371L256.583 54.885C255.829 57.147 254.91 59.1287 253.828 60.83C252.764 62.5313 251.343 63.8557 249.565 64.803C247.786 65.7503 245.437 66.224 242.518 66.224ZM297.954 53.638C296.118 53.638 294.368 53.435 292.705 53.029C291.062 52.623 289.593 52.014 288.297 51.202C287.021 50.39 286.006 49.3847 285.252 48.186C284.518 46.968 284.15 45.5663 284.15 43.981C284.15 43.865 284.15 43.749 284.15 43.633C284.15 43.517 284.15 43.4107 284.15 43.314H291.748C291.748 43.4107 291.748 43.4977 291.748 43.575C291.748 43.633 291.748 43.72 291.748 43.836C291.748 45.0927 292.319 46.04 293.459 46.678C294.619 47.2967 296.195 47.606 298.186 47.606C299.269 47.606 300.284 47.49 301.231 47.258C302.198 47.026 302.971 46.6683 303.551 46.185C304.151 45.7017 304.45 45.083 304.45 44.329C304.45 43.111 303.822 42.241 302.565 41.719C301.328 41.197 299.375 40.7233 296.707 40.298C295.238 40.0467 293.788 39.7083 292.357 39.283C290.927 38.8577 289.622 38.2873 288.442 37.572C287.282 36.8567 286.345 35.9673 285.629 34.904C284.933 33.8407 284.585 32.5453 284.585 31.018C284.585 28.988 285.185 27.2867 286.383 25.914C287.601 24.522 289.225 23.4683 291.255 22.753C293.305 22.0377 295.557 21.68 298.012 21.68C300.371 21.68 302.565 22.0667 304.595 22.84C306.625 23.6133 308.259 24.725 309.496 26.175C310.753 27.625 311.381 29.3747 311.381 31.424C311.381 31.5013 311.381 31.5883 311.381 31.685C311.381 31.7623 311.381 31.83 311.381 31.888H303.841C303.841 31.83 303.841 31.772 303.841 31.714C303.841 31.656 303.841 31.5883 303.841 31.511C303.841 30.6217 303.561 29.8967 303 29.336C302.44 28.7753 301.715 28.3597 300.825 28.089C299.936 27.8183 298.998 27.683 298.012 27.683C297.142 27.683 296.243 27.7797 295.315 27.973C294.387 28.147 293.614 28.466 292.995 28.93C292.377 29.3747 292.067 30.003 292.067 30.815C292.067 31.5883 292.386 32.2167 293.024 32.7C293.662 33.1833 294.552 33.5893 295.692 33.918C296.833 34.2273 298.148 34.5077 299.636 34.759C301.048 34.991 302.469 35.31 303.899 35.716C305.349 36.122 306.674 36.6633 307.872 37.34C309.071 38.0167 310.038 38.906 310.772 40.008C311.526 41.0907 311.903 42.4343 311.903 44.039C311.903 45.7403 311.517 47.1903 310.743 48.389C309.97 49.5877 308.916 50.5833 307.582 51.376C306.268 52.1493 304.779 52.7197 303.116 53.087C301.454 53.4543 299.733 53.638 297.954 53.638ZM332.637 53.609C329.389 53.609 326.528 52.9323 324.053 51.579C321.578 50.2063 319.635 48.3117 318.224 45.895C316.832 43.4783 316.136 40.7137 316.136 37.601C316.136 34.469 316.832 31.714 318.224 29.336C319.635 26.9387 321.578 25.0633 324.053 23.71C326.528 22.3567 329.389 21.68 332.637 21.68C335.885 21.68 338.746 22.3567 341.221 23.71C343.696 25.0633 345.629 26.9387 347.021 29.336C348.432 31.714 349.138 34.469 349.138 37.601C349.138 40.7137 348.432 43.4783 347.021 45.895C345.629 48.3117 343.696 50.2063 341.221 51.579C338.746 52.9323 335.885 53.609 332.637 53.609ZM332.637 47.374C334.396 47.374 335.933 46.968 337.248 46.156C338.563 45.344 339.587 44.213 340.322 42.763C341.057 41.2937 341.424 39.573 341.424 37.601C341.424 35.629 341.057 33.9277 340.322 32.497C339.587 31.047 338.563 29.9257 337.248 29.133C335.933 28.3403 334.396 27.944 332.637 27.944C330.897 27.944 329.36 28.3403 328.026 29.133C326.711 29.9257 325.687 31.047 324.952 32.497C324.217 33.9277 323.85 35.629 323.85 37.601C323.85 39.573 324.217 41.2937 324.952 42.763C325.687 44.213 326.711 45.344 328.026 46.156C329.36 46.968 330.897 47.374 332.637 47.374ZM373.892 53V40.501C373.892 39.3603 373.892 38.3647 373.892 37.514C373.892 36.644 373.892 35.919 373.892 35.339C373.892 34.585 373.844 33.802 373.747 32.99C373.651 32.1587 373.438 31.395 373.109 30.699C372.781 30.003 372.268 29.4423 371.572 29.017C370.896 28.5723 369.958 28.35 368.759 28.35C367.599 28.35 366.613 28.5917 365.801 29.075C365.009 29.539 364.351 30.1673 363.829 30.96C363.327 31.7333 362.959 32.6227 362.727 33.628C362.495 34.614 362.379 35.629 362.379 36.673L359.827 34.962C359.827 32.4293 360.301 30.1673 361.248 28.176C362.196 26.1847 363.539 24.609 365.279 23.449C367.039 22.2697 369.117 21.68 371.514 21.68C373.989 21.68 375.951 22.202 377.401 23.246C378.851 24.2707 379.886 25.6627 380.504 27.422C381.142 29.1813 381.461 31.1533 381.461 33.338C381.461 34.15 381.461 35.2327 381.461 36.586C381.461 37.92 381.461 39.4957 381.461 41.313V53H373.892ZM354.752 53V22.202H362.379V53H354.752ZM392.916 53V40.53C392.916 39.312 392.916 38.2777 392.916 37.427C392.916 36.5763 392.916 35.861 392.916 35.281C392.916 34.469 392.868 33.657 392.771 32.845C392.675 32.0137 392.462 31.2693 392.133 30.612C391.805 29.9353 391.292 29.394 390.596 28.988C389.9 28.5627 388.953 28.35 387.754 28.35C386.575 28.35 385.579 28.582 384.767 29.046C383.975 29.51 383.337 30.1287 382.853 30.902C382.37 31.6753 382.012 32.5453 381.78 33.512C381.568 34.4787 381.461 35.4453 381.461 36.412L378.909 34.73C378.909 32.2747 379.373 30.061 380.301 28.089C381.229 26.117 382.563 24.5607 384.303 23.42C386.043 22.26 388.112 21.68 390.509 21.68C392.926 21.68 394.869 22.173 396.338 23.159C397.808 24.145 398.871 25.4983 399.528 27.219C400.205 28.9203 400.543 30.8633 400.543 33.048C400.543 33.8987 400.543 34.9813 400.543 36.296C400.543 37.6107 400.543 39.167 400.543 40.965V53H392.916ZM410.027 40.066V34.643H431.574L430.704 36.093C430.704 35.977 430.704 35.8513 430.704 35.716C430.704 35.5613 430.704 35.4357 430.704 35.339C430.704 34.005 430.405 32.758 429.805 31.598C429.206 30.4187 428.297 29.4713 427.079 28.756C425.861 28.0213 424.315 27.654 422.439 27.654C420.583 27.654 418.969 28.0503 417.596 28.843C416.243 29.6163 415.189 30.7377 414.435 32.207C413.701 33.6763 413.333 35.4357 413.333 37.485C413.333 39.5923 413.691 41.4097 414.406 42.937C415.122 44.445 416.166 45.605 417.538 46.417C418.93 47.2097 420.622 47.606 422.613 47.606C423.967 47.606 425.136 47.4803 426.122 47.229C427.108 46.9777 427.911 46.6393 428.529 46.214C429.167 45.7693 429.641 45.2957 429.95 44.793C430.279 44.2903 430.472 43.7877 430.53 43.285H438.128C438.012 44.5803 437.577 45.8467 436.823 47.084C436.089 48.302 435.054 49.4137 433.72 50.419C432.386 51.405 430.762 52.1977 428.848 52.797C426.954 53.377 424.788 53.667 422.352 53.667C419.046 53.667 416.156 52.9903 413.681 51.637C411.207 50.2837 409.273 48.3987 407.881 45.982C406.509 43.5653 405.822 40.8007 405.822 37.688C405.822 34.498 406.518 31.7043 407.91 29.307C409.322 26.9097 411.274 25.044 413.768 23.71C416.262 22.3567 419.124 21.68 422.352 21.68C425.678 21.68 428.549 22.3567 430.965 23.71C433.401 25.0633 435.277 26.9483 436.591 29.365C437.906 31.7623 438.563 34.556 438.563 37.746C438.563 38.152 438.554 38.587 438.534 39.051C438.515 39.515 438.486 39.8533 438.447 40.066H410.027Z" fill="black"/>
<path d="M478.665 49.955C480.483 50.129 482.078 50.4673 483.45 50.97C484.823 51.4727 485.896 52.217 486.669 53.203C487.443 54.2083 487.829 55.5423 487.829 57.205C487.829 59.061 487.201 60.6657 485.944 62.019C484.688 63.3723 482.841 64.4163 480.405 65.151C477.989 65.8857 475.011 66.253 471.473 66.253C466.331 66.253 462.377 65.5087 459.612 64.02C456.848 62.5507 455.465 60.5497 455.465 58.017C455.465 57.3017 455.552 56.654 455.726 56.074C455.9 55.494 456.113 55.0107 456.364 54.624L463.353 55.639C463.237 55.7937 463.121 56.0353 463.005 56.364C462.889 56.712 462.831 57.1277 462.831 57.611C462.831 58.8097 463.634 59.67 465.238 60.192C466.862 60.7333 469.018 61.004 471.705 61.004C473.677 61.004 475.321 60.8687 476.635 60.598C477.969 60.3273 478.975 59.9407 479.651 59.438C480.347 58.9353 480.695 58.3457 480.695 57.669C480.695 56.6637 480.241 56.016 479.332 55.726C478.424 55.436 477.341 55.2427 476.084 55.146L464.397 54.073C462.309 53.8603 460.589 53.2417 459.235 52.217C457.901 51.1923 457.234 49.839 457.234 48.157C457.234 47.1323 457.505 46.185 458.046 45.315C458.607 44.445 459.245 43.72 459.96 43.14C460.676 42.5407 461.285 42.1733 461.787 42.038L466.137 44.184C465.731 44.242 465.248 44.503 464.687 44.967C464.146 45.431 463.875 45.982 463.875 46.62C463.875 47.2193 464.146 47.722 464.687 48.128C465.229 48.5147 466.273 48.7853 467.819 48.94L478.665 49.955ZM482.116 22.202H488.96L486.176 34.15C485.654 36.3927 484.813 38.4033 483.653 40.182C482.493 41.9607 480.947 43.3623 479.013 44.387C477.08 45.4117 474.644 45.924 471.705 45.924C468.651 45.924 466.012 45.431 463.788 44.445C461.584 43.4397 459.883 42.038 458.684 40.24C457.486 38.4227 456.886 36.3347 456.886 33.976C456.886 31.5593 457.495 29.4327 458.713 27.596C459.951 25.74 461.642 24.29 463.788 23.246C465.954 22.202 468.399 21.68 471.125 21.68C473.329 21.68 475.311 22.0473 477.07 22.782C478.83 23.4973 480.231 24.435 481.275 25.595C482.339 26.755 482.909 27.9923 482.986 29.307L481.275 29.626L482.116 22.202ZM471.676 40.037C473.165 40.037 474.451 39.7953 475.533 39.312C476.616 38.8287 477.457 38.1327 478.056 37.224C478.656 36.296 478.955 35.1747 478.955 33.86C478.955 32.5647 478.656 31.453 478.056 30.525C477.457 29.597 476.616 28.8913 475.533 28.408C474.451 27.9053 473.175 27.654 471.705 27.654C470.275 27.654 469.008 27.9053 467.906 28.408C466.804 28.9107 465.934 29.6357 465.296 30.583C464.678 31.511 464.368 32.6227 464.368 33.918C464.368 35.2133 464.668 36.325 465.267 37.253C465.886 38.1617 466.737 38.8577 467.819 39.341C468.921 39.805 470.207 40.037 471.676 40.037ZM502.71 53.638C500.409 53.638 498.389 53.2803 496.649 52.565C494.909 51.8303 493.546 50.7767 492.56 49.404C491.574 48.0313 491.081 46.3783 491.081 44.445C491.081 42.3377 491.651 40.6073 492.792 39.254C493.952 37.8813 495.508 36.8277 497.461 36.093C499.414 35.339 501.579 34.8557 503.957 34.643C507.476 34.295 509.931 33.9663 511.323 33.657C512.734 33.3283 513.44 32.8063 513.44 32.091C513.44 32.0717 513.44 32.062 513.44 32.062C513.44 32.0427 513.44 32.033 513.44 32.033C513.44 30.6797 512.831 29.6357 511.613 28.901C510.395 28.1663 508.674 27.799 506.451 27.799C504.112 27.799 502.314 28.2147 501.057 29.046C499.82 29.858 499.201 31.1533 499.201 32.932H491.661C491.661 30.5153 492.299 28.4757 493.575 26.813C494.87 25.131 496.639 23.855 498.882 22.985C501.125 22.115 503.667 21.68 506.509 21.68C509.158 21.68 511.584 22.0763 513.788 22.869C515.992 23.6617 517.761 24.8603 519.095 26.465C520.429 28.0697 521.096 30.0707 521.096 32.468C521.096 32.874 521.096 33.28 521.096 33.686C521.096 34.092 521.096 34.498 521.096 34.904V46.504C521.096 47.2387 521.115 47.9637 521.154 48.679C521.212 49.375 521.318 50.0033 521.473 50.564C521.666 51.1827 521.898 51.7047 522.169 52.13C522.44 52.5553 522.652 52.8453 522.807 53H515.267C515.132 52.8647 514.938 52.6037 514.687 52.217C514.455 51.811 514.242 51.347 514.049 50.825C513.856 50.245 513.711 49.6263 513.614 48.969C513.517 48.2923 513.469 47.548 513.469 46.736L514.977 47.78C514.397 48.9593 513.508 49.9937 512.309 50.883C511.13 51.753 509.718 52.4297 508.075 52.913C506.432 53.3963 504.643 53.638 502.71 53.638ZM504.566 47.635C506.151 47.635 507.621 47.3643 508.974 46.823C510.327 46.2817 511.42 45.4503 512.251 44.329C513.082 43.1883 513.498 41.7287 513.498 39.95V35.832L515.354 37.92C514.117 38.384 512.628 38.7707 510.888 39.08C509.148 39.37 507.389 39.602 505.61 39.776C503.329 39.9887 501.608 40.385 500.448 40.965C499.307 41.545 498.737 42.4923 498.737 43.807C498.737 45.083 499.22 46.04 500.187 46.678C501.154 47.316 502.613 47.635 504.566 47.635ZM546.621 53V40.501C546.621 39.3603 546.621 38.3647 546.621 37.514C546.621 36.644 546.621 35.919 546.621 35.339C546.621 34.585 546.573 33.802 546.476 32.99C546.38 32.1587 546.167 31.395 545.838 30.699C545.51 30.003 544.997 29.4423 544.301 29.017C543.625 28.5723 542.687 28.35 541.488 28.35C540.328 28.35 539.342 28.5917 538.53 29.075C537.738 29.539 537.08 30.1673 536.558 30.96C536.056 31.7333 535.688 32.6227 535.456 33.628C535.224 34.614 535.108 35.629 535.108 36.673L532.556 34.962C532.556 32.4293 533.03 30.1673 533.977 28.176C534.925 26.1847 536.268 24.609 538.008 23.449C539.768 22.2697 541.846 21.68 544.243 21.68C546.718 21.68 548.68 22.202 550.13 23.246C551.58 24.2707 552.615 25.6627 553.233 27.422C553.871 29.1813 554.19 31.1533 554.19 33.338C554.19 34.15 554.19 35.2327 554.19 36.586C554.19 37.92 554.19 39.4957 554.19 41.313V53H546.621ZM527.481 53V22.202H535.108V53H527.481ZM565.645 53V40.53C565.645 39.312 565.645 38.2777 565.645 37.427C565.645 36.5763 565.645 35.861 565.645 35.281C565.645 34.469 565.597 33.657 565.5 32.845C565.404 32.0137 565.191 31.2693 564.862 30.612C564.534 29.9353 564.021 29.394 563.325 28.988C562.629 28.5627 561.682 28.35 560.483 28.35C559.304 28.35 558.308 28.582 557.496 29.046C556.704 29.51 556.066 30.1287 555.582 30.902C555.099 31.6753 554.741 32.5453 554.509 33.512C554.297 34.4787 554.19 35.4453 554.19 36.412L551.638 34.73C551.638 32.2747 552.102 30.061 553.03 28.089C553.958 26.117 555.292 24.5607 557.032 23.42C558.772 22.26 560.841 21.68 563.238 21.68C565.655 21.68 567.598 22.173 569.067 23.159C570.537 24.145 571.6 25.4983 572.257 27.219C572.934 28.9203 573.272 30.8633 573.272 33.048C573.272 33.8987 573.272 34.9813 573.272 36.296C573.272 37.6107 573.272 39.167 573.272 40.965V53H565.645ZM582.756 40.066V34.643H604.303L603.433 36.093C603.433 35.977 603.433 35.8513 603.433 35.716C603.433 35.5613 603.433 35.4357 603.433 35.339C603.433 34.005 603.134 32.758 602.534 31.598C601.935 30.4187 601.026 29.4713 599.808 28.756C598.59 28.0213 597.044 27.654 595.168 27.654C593.312 27.654 591.698 28.0503 590.325 28.843C588.972 29.6163 587.918 30.7377 587.164 32.207C586.43 33.6763 586.062 35.4357 586.062 37.485C586.062 39.5923 586.42 41.4097 587.135 42.937C587.851 44.445 588.895 45.605 590.267 46.417C591.659 47.2097 593.351 47.606 595.342 47.606C596.696 47.606 597.865 47.4803 598.851 47.229C599.837 46.9777 600.64 46.6393 601.258 46.214C601.896 45.7693 602.37 45.2957 602.679 44.793C603.008 44.2903 603.201 43.7877 603.259 43.285H610.857C610.741 44.5803 610.306 45.8467 609.552 47.084C608.818 48.302 607.783 49.4137 606.449 50.419C605.115 51.405 603.491 52.1977 601.577 52.797C599.683 53.377 597.517 53.667 595.081 53.667C591.775 53.667 588.885 52.9903 586.41 51.637C583.936 50.2837 582.002 48.3987 580.61 45.982C579.238 43.5653 578.551 40.8007 578.551 37.688C578.551 34.498 579.247 31.7043 580.639 29.307C582.051 26.9097 584.003 25.044 586.497 23.71C588.991 22.3567 591.853 21.68 595.081 21.68C598.407 21.68 601.278 22.3567 603.694 23.71C606.13 25.0633 608.006 26.9483 609.32 29.365C610.635 31.7623 611.292 34.556 611.292 37.746C611.292 38.152 611.283 38.587 611.263 39.051C611.244 39.515 611.215 39.8533 611.176 40.066H582.756Z" fill="url(#paint0_linear_133_212)"/>
<defs>
<linearGradient id="paint0_linear_133_212" x1="462.505" y1="22" x2="618.312" y2="76.722" gradientUnits="userSpaceOnUse">
<stop stop-color="#FEAA4C"/>
<stop offset="1" stop-color="#F66756"/>
</linearGradient>
</defs>
</svg>
