<svg width="278" height="74" viewBox="0 0 278 74" fill="none" xmlns="http://www.w3.org/2000/svg">
<path d="M278 47.1658C278 48.3619 267.203 47.1658 244.305 47.1658C217.677 47.1658 200 49.0428 200 47.1658C200 45.9697 217.677 45 244.305 45C270.934 45 278 45.9697 278 47.1658Z" fill="black"/>
<path d="M2.16737 44V24.825H5.59937V42.973L4.05237 41.166H12.8664V44H2.16737ZM16.5746 38.202V35.771H26.2336L25.8436 36.421C25.8436 36.369 25.8436 36.3127 25.8436 36.252C25.8436 36.1827 25.8436 36.1263 25.8436 36.083C25.8436 35.485 25.7093 34.926 25.4406 34.406C25.172 33.8773 24.7646 33.4527 24.2186 33.132C23.6726 32.8027 22.9793 32.638 22.1386 32.638C21.3066 32.638 20.583 32.8157 19.9676 33.171C19.361 33.5177 18.8886 34.0203 18.5506 34.679C18.2213 35.3377 18.0566 36.1263 18.0566 37.045C18.0566 37.9897 18.217 38.8043 18.5376 39.489C18.8583 40.165 19.3263 40.685 19.9416 41.049C20.5656 41.4043 21.324 41.582 22.2166 41.582C22.8233 41.582 23.3476 41.5257 23.7896 41.413C24.2316 41.3003 24.5913 41.1487 24.8686 40.958C25.1546 40.7587 25.367 40.5463 25.5056 40.321C25.653 40.0957 25.7396 39.8703 25.7656 39.645H29.1716C29.1196 40.2257 28.9246 40.7933 28.5866 41.348C28.2573 41.894 27.7936 42.3923 27.1956 42.843C26.5976 43.285 25.8696 43.6403 25.0116 43.909C24.1623 44.169 23.1916 44.299 22.0996 44.299C20.6176 44.299 19.322 43.9957 18.2126 43.389C17.1033 42.7823 16.2366 41.9373 15.6126 40.854C14.9973 39.7707 14.6896 38.5313 14.6896 37.136C14.6896 35.706 15.0016 34.4537 15.6256 33.379C16.2583 32.3043 17.1336 31.468 18.2516 30.87C19.3696 30.2633 20.6523 29.96 22.0996 29.96C23.5903 29.96 24.8773 30.2633 25.9606 30.87C27.0526 31.4767 27.8933 32.3217 28.4826 33.405C29.072 34.4797 29.3666 35.732 29.3666 37.162C29.3666 37.344 29.3623 37.539 29.3536 37.747C29.345 37.955 29.332 38.1067 29.3146 38.202H16.5746ZM38.065 44.26C37.571 44.26 37.0684 44.2123 36.557 44.117C36.0457 44.0217 35.5777 43.844 35.153 43.584C34.7284 43.324 34.386 42.9427 34.126 42.44C33.866 41.9373 33.736 41.2743 33.736 40.451C33.736 40.2603 33.736 40.0697 33.736 39.879C33.736 39.6797 33.736 39.476 33.736 39.268V32.924H30.473V30.194H31.799C32.2497 30.194 32.605 30.1767 32.865 30.142C33.125 30.0987 33.3157 30.0033 33.437 29.856C33.5584 29.7087 33.6364 29.479 33.671 29.167C33.7144 28.8463 33.736 28.4043 33.736 27.841V25.644H37.168V30.194H41.276V32.924H37.168V38.462C37.168 38.6267 37.168 38.7913 37.168 38.956C37.168 39.112 37.168 39.2637 37.168 39.411C37.168 40.0523 37.246 40.568 37.402 40.958C37.558 41.348 37.9264 41.543 38.507 41.543C38.7844 41.543 39.0444 41.517 39.287 41.465C39.5384 41.413 39.7247 41.361 39.846 41.309V43.987C39.6814 44.0477 39.443 44.1083 39.131 44.169C38.819 44.2297 38.4637 44.26 38.065 44.26ZM44.7808 28.01C44.2174 28.01 43.7624 27.8453 43.4158 27.516C43.0778 27.1867 42.9088 26.7447 42.9088 26.19C42.9088 25.6267 43.0951 25.163 43.4678 24.799C43.8404 24.435 44.3778 24.253 45.0798 24.253C45.7904 24.253 46.3321 24.4913 46.7048 24.968C47.0861 25.436 47.2768 26.0383 47.2768 26.775C47.2768 27.477 47.1034 28.101 46.7568 28.647C46.4101 29.1843 45.9768 29.6437 45.4568 30.025C44.9368 30.3977 44.4168 30.688 43.8968 30.896L43.4678 30.051C43.8318 29.9037 44.1871 29.7043 44.5338 29.453C44.8891 29.2017 45.1838 28.9243 45.4178 28.621C45.6518 28.309 45.7688 27.9927 45.7688 27.672C45.7341 27.724 45.6301 27.7933 45.4568 27.88C45.2834 27.9667 45.0581 28.01 44.7808 28.01ZM54.4729 44.286C53.6495 44.286 52.8652 44.195 52.1199 44.013C51.3832 43.831 50.7245 43.558 50.1439 43.194C49.5719 42.83 49.1169 42.3793 48.7789 41.842C48.4495 41.296 48.2849 40.6677 48.2849 39.957C48.2849 39.905 48.2849 39.853 48.2849 39.801C48.2849 39.749 48.2849 39.7013 48.2849 39.658H51.6909C51.6909 39.7013 51.6909 39.7403 51.6909 39.775C51.6909 39.801 51.6909 39.84 51.6909 39.892C51.6909 40.4553 51.9465 40.88 52.4579 41.166C52.9779 41.4433 53.6842 41.582 54.5769 41.582C55.0622 41.582 55.5172 41.53 55.9419 41.426C56.3752 41.322 56.7219 41.1617 56.9819 40.945C57.2505 40.7283 57.3849 40.451 57.3849 40.113C57.3849 39.567 57.1032 39.177 56.5399 38.943C55.9852 38.709 55.1099 38.4967 53.9139 38.306C53.2552 38.1933 52.6052 38.0417 51.9639 37.851C51.3225 37.6603 50.7375 37.4047 50.2089 37.084C49.6889 36.7633 49.2685 36.3647 48.9479 35.888C48.6359 35.4113 48.4799 34.8307 48.4799 34.146C48.4799 33.236 48.7485 32.4733 49.2859 31.858C49.8319 31.234 50.5599 30.7617 51.4699 30.441C52.3885 30.1203 53.3982 29.96 54.4989 29.96C55.5562 29.96 56.5399 30.1333 57.4499 30.48C58.3599 30.8267 59.0922 31.325 59.6469 31.975C60.2102 32.625 60.4919 33.4093 60.4919 34.328C60.4919 34.3627 60.4919 34.4017 60.4919 34.445C60.4919 34.4797 60.4919 34.51 60.4919 34.536H57.1119C57.1119 34.51 57.1119 34.484 57.1119 34.458C57.1119 34.432 57.1119 34.4017 57.1119 34.367C57.1119 33.9683 56.9862 33.6433 56.7349 33.392C56.4835 33.1407 56.1585 32.9543 55.7599 32.833C55.3612 32.7117 54.9409 32.651 54.4989 32.651C54.1089 32.651 53.7059 32.6943 53.2899 32.781C52.8739 32.859 52.5272 33.002 52.2499 33.21C51.9725 33.4093 51.8339 33.691 51.8339 34.055C51.8339 34.4017 51.9769 34.6833 52.2629 34.9C52.5489 35.1167 52.9475 35.2987 53.4589 35.446C53.9702 35.5847 54.5595 35.7103 55.2269 35.823C55.8595 35.927 56.4965 36.07 57.1379 36.252C57.7879 36.434 58.3815 36.6767 58.9189 36.98C59.4562 37.2833 59.8895 37.682 60.2189 38.176C60.5569 38.6613 60.7259 39.2637 60.7259 39.983C60.7259 40.7457 60.5525 41.3957 60.2059 41.933C59.8592 42.4703 59.3869 42.9167 58.7889 43.272C58.1995 43.6187 57.5322 43.8743 56.7869 44.039C56.0415 44.2037 55.2702 44.286 54.4729 44.286ZM69.4223 49.681V30.194H72.8413V49.681H69.4223ZM77.1963 44.286C76.1216 44.286 75.1249 44.0087 74.2063 43.454C73.2963 42.8907 72.5596 42.1237 71.9963 41.153C71.4416 40.1823 71.1643 39.0903 71.1643 37.877C71.1643 37.8423 71.1643 37.812 71.1643 37.786C71.1643 37.7513 71.1643 37.721 71.1643 37.695L72.8543 37.656C72.8543 37.6733 72.8543 37.695 72.8543 37.721C72.8543 37.747 72.8543 37.7687 72.8543 37.786C72.8543 38.462 73.0233 39.0643 73.3613 39.593C73.6993 40.113 74.1369 40.5247 74.6743 40.828C75.2203 41.1227 75.8009 41.27 76.4163 41.27C77.4129 41.27 78.2623 40.9277 78.9643 40.243C79.6663 39.5583 80.0173 38.4967 80.0173 37.058C80.0173 35.6107 79.6663 34.5533 78.9643 33.886C78.2709 33.21 77.4216 32.872 76.4163 32.872C75.8096 32.872 75.2333 33.0193 74.6873 33.314C74.1499 33.6 73.7079 33.9987 73.3613 34.51C73.0233 35.0213 72.8543 35.6193 72.8543 36.304L71.1643 36.226C71.1643 35.004 71.4416 33.9207 71.9963 32.976C72.5596 32.0313 73.2963 31.2947 74.2063 30.766C75.1249 30.2287 76.1216 29.96 77.1963 29.96C78.3143 29.96 79.3543 30.233 80.3163 30.779C81.2869 31.325 82.0669 32.1267 82.6563 33.184C83.2543 34.2413 83.5533 35.5327 83.5533 37.058C83.5533 38.6267 83.2629 39.9483 82.6823 41.023C82.1016 42.0977 81.3303 42.9123 80.3683 43.467C79.4063 44.013 78.3489 44.286 77.1963 44.286ZM89.6332 23.681V44H86.2662V23.681H89.6332ZM97.5498 44.286C96.5185 44.286 95.6128 44.1257 94.8328 43.805C94.0528 43.4757 93.4418 43.0033 92.9998 42.388C92.5578 41.7727 92.3368 41.0317 92.3368 40.165C92.3368 39.2203 92.5925 38.4447 93.1038 37.838C93.6238 37.2227 94.3215 36.7503 95.1968 36.421C96.0721 36.083 97.0428 35.8663 98.1088 35.771C99.6861 35.615 100.787 35.4677 101.411 35.329C102.043 35.1817 102.36 34.9477 102.36 34.627C102.36 34.6183 102.36 34.614 102.36 34.614C102.36 34.6053 102.36 34.601 102.36 34.601C102.36 33.9943 102.087 33.5263 101.541 33.197C100.995 32.8677 100.223 32.703 99.2268 32.703C98.1781 32.703 97.3721 32.8893 96.8088 33.262C96.2541 33.626 95.9768 34.2067 95.9768 35.004H92.5968C92.5968 33.9207 92.8828 33.0063 93.4548 32.261C94.0355 31.507 94.8285 30.935 95.8338 30.545C96.8391 30.155 97.9788 29.96 99.2528 29.96C100.44 29.96 101.528 30.1377 102.516 30.493C103.504 30.8483 104.297 31.3857 104.895 32.105C105.493 32.8243 105.792 33.7213 105.792 34.796C105.792 34.978 105.792 35.16 105.792 35.342C105.792 35.524 105.792 35.706 105.792 35.888V41.088C105.792 41.4173 105.8 41.7423 105.818 42.063C105.844 42.375 105.891 42.6567 105.961 42.908C106.047 43.1853 106.151 43.4193 106.273 43.61C106.394 43.8007 106.489 43.9307 106.559 44H103.179C103.118 43.9393 103.031 43.8223 102.919 43.649C102.815 43.467 102.719 43.259 102.633 43.025C102.546 42.765 102.481 42.4877 102.438 42.193C102.394 41.8897 102.373 41.556 102.373 41.192L103.049 41.66C102.789 42.1887 102.39 42.6523 101.853 43.051C101.324 43.441 100.691 43.7443 99.9548 43.961C99.2181 44.1777 98.4165 44.286 97.5498 44.286ZM98.3818 41.595C99.0925 41.595 99.7511 41.4737 100.358 41.231C100.964 40.9883 101.454 40.6157 101.827 40.113C102.199 39.6017 102.386 38.9473 102.386 38.15V36.304L103.218 37.24C102.663 37.448 101.996 37.6213 101.216 37.76C100.436 37.89 99.6471 37.994 98.8498 38.072C97.8271 38.1673 97.0558 38.345 96.5358 38.605C96.0245 38.865 95.7688 39.2897 95.7688 39.879C95.7688 40.451 95.9855 40.88 96.4188 41.166C96.8521 41.452 97.5065 41.595 98.3818 41.595ZM109.094 49.928C108.687 49.928 108.323 49.9063 108.002 49.863C107.682 49.8283 107.482 49.7937 107.404 49.759V47.094C107.517 47.146 107.708 47.185 107.976 47.211C108.254 47.2457 108.54 47.263 108.834 47.263C109.311 47.263 109.723 47.1677 110.069 46.977C110.425 46.7863 110.728 46.522 110.979 46.184C111.231 45.8547 111.43 45.469 111.577 45.027L111.876 44.156L107.118 30.194H110.693L113.956 41.712H113.54L116.725 30.194H120.235L115.399 44.845C115.061 45.859 114.65 46.7473 114.164 47.51C113.688 48.2727 113.051 48.8663 112.253 49.291C111.456 49.7157 110.403 49.928 109.094 49.928ZM133.945 44.286C133.122 44.286 132.337 44.195 131.592 44.013C130.855 43.831 130.197 43.558 129.616 43.194C129.044 42.83 128.589 42.3793 128.251 41.842C127.922 41.296 127.757 40.6677 127.757 39.957C127.757 39.905 127.757 39.853 127.757 39.801C127.757 39.749 127.757 39.7013 127.757 39.658H131.163C131.163 39.7013 131.163 39.7403 131.163 39.775C131.163 39.801 131.163 39.84 131.163 39.892C131.163 40.4553 131.419 40.88 131.93 41.166C132.45 41.4433 133.156 41.582 134.049 41.582C134.534 41.582 134.989 41.53 135.414 41.426C135.847 41.322 136.194 41.1617 136.454 40.945C136.723 40.7283 136.857 40.451 136.857 40.113C136.857 39.567 136.575 39.177 136.012 38.943C135.457 38.709 134.582 38.4967 133.386 38.306C132.727 38.1933 132.077 38.0417 131.436 37.851C130.795 37.6603 130.21 37.4047 129.681 37.084C129.161 36.7633 128.741 36.3647 128.42 35.888C128.108 35.4113 127.952 34.8307 127.952 34.146C127.952 33.236 128.221 32.4733 128.758 31.858C129.304 31.234 130.032 30.7617 130.942 30.441C131.861 30.1203 132.87 29.96 133.971 29.96C135.028 29.96 136.012 30.1333 136.922 30.48C137.832 30.8267 138.564 31.325 139.119 31.975C139.682 32.625 139.964 33.4093 139.964 34.328C139.964 34.3627 139.964 34.4017 139.964 34.445C139.964 34.4797 139.964 34.51 139.964 34.536H136.584C136.584 34.51 136.584 34.484 136.584 34.458C136.584 34.432 136.584 34.4017 136.584 34.367C136.584 33.9683 136.458 33.6433 136.207 33.392C135.956 33.1407 135.631 32.9543 135.232 32.833C134.833 32.7117 134.413 32.651 133.971 32.651C133.581 32.651 133.178 32.6943 132.762 32.781C132.346 32.859 131.999 33.002 131.722 33.21C131.445 33.4093 131.306 33.691 131.306 34.055C131.306 34.4017 131.449 34.6833 131.735 34.9C132.021 35.1167 132.42 35.2987 132.931 35.446C133.442 35.5847 134.032 35.7103 134.699 35.823C135.332 35.927 135.969 36.07 136.61 36.252C137.26 36.434 137.854 36.6767 138.391 36.98C138.928 37.2833 139.362 37.682 139.691 38.176C140.029 38.6613 140.198 39.2637 140.198 39.983C140.198 40.7457 140.025 41.3957 139.678 41.933C139.331 42.4703 138.859 42.9167 138.261 43.272C137.672 43.6187 137.004 43.8743 136.259 44.039C135.514 44.2037 134.742 44.286 133.945 44.286ZM149.493 44.273C148.037 44.273 146.754 43.9697 145.645 43.363C144.535 42.7477 143.664 41.8983 143.032 40.815C142.408 39.7317 142.096 38.4923 142.096 37.097C142.096 35.693 142.408 34.458 143.032 33.392C143.664 32.3173 144.535 31.4767 145.645 30.87C146.754 30.2633 148.037 29.96 149.493 29.96C150.949 29.96 152.231 30.2633 153.341 30.87C154.45 31.4767 155.317 32.3173 155.941 33.392C156.573 34.458 156.89 35.693 156.89 37.097C156.89 38.4923 156.573 39.7317 155.941 40.815C155.317 41.8983 154.45 42.7477 153.341 43.363C152.231 43.9697 150.949 44.273 149.493 44.273ZM149.493 41.478C150.281 41.478 150.97 41.296 151.56 40.932C152.149 40.568 152.608 40.061 152.938 39.411C153.267 38.7523 153.432 37.981 153.432 37.097C153.432 36.213 153.267 35.4503 152.938 34.809C152.608 34.159 152.149 33.6563 151.56 33.301C150.97 32.9457 150.281 32.768 149.493 32.768C148.713 32.768 148.024 32.9457 147.426 33.301C146.836 33.6563 146.377 34.159 146.048 34.809C145.718 35.4503 145.554 36.213 145.554 37.097C145.554 37.981 145.718 38.7523 146.048 39.411C146.377 40.061 146.836 40.568 147.426 40.932C148.024 41.296 148.713 41.478 149.493 41.478ZM167.986 44V38.397C167.986 37.8857 167.986 37.4393 167.986 37.058C167.986 36.668 167.986 36.343 167.986 36.083C167.986 35.745 167.965 35.394 167.921 35.03C167.878 34.6573 167.783 34.315 167.635 34.003C167.488 33.691 167.258 33.4397 166.946 33.249C166.643 33.0497 166.223 32.95 165.685 32.95C165.165 32.95 164.723 33.0583 164.359 33.275C164.004 33.483 163.709 33.7647 163.475 34.12C163.25 34.4667 163.085 34.8653 162.981 35.316C162.877 35.758 162.825 36.213 162.825 36.681L161.681 35.914C161.681 34.7787 161.894 33.7647 162.318 32.872C162.743 31.9793 163.345 31.273 164.125 30.753C164.914 30.2243 165.846 29.96 166.92 29.96C168.03 29.96 168.909 30.194 169.559 30.662C170.209 31.1213 170.673 31.7453 170.95 32.534C171.236 33.3227 171.379 34.2067 171.379 35.186C171.379 35.55 171.379 36.0353 171.379 36.642C171.379 37.24 171.379 37.9463 171.379 38.761V44H167.986ZM159.406 44V30.194H162.825V44H159.406ZM176.514 44V38.41C176.514 37.864 176.514 37.4003 176.514 37.019C176.514 36.6377 176.514 36.317 176.514 36.057C176.514 35.693 176.493 35.329 176.449 34.965C176.406 34.5923 176.311 34.2587 176.163 33.964C176.016 33.6607 175.786 33.418 175.474 33.236C175.162 33.0453 174.738 32.95 174.2 32.95C173.672 32.95 173.225 33.054 172.861 33.262C172.506 33.47 172.22 33.7473 172.003 34.094C171.787 34.4407 171.626 34.8307 171.522 35.264C171.427 35.6973 171.379 36.1307 171.379 36.564L170.235 35.81C170.235 34.7093 170.443 33.717 170.859 32.833C171.275 31.949 171.873 31.2513 172.653 30.74C173.433 30.22 174.361 29.96 175.435 29.96C176.519 29.96 177.39 30.181 178.048 30.623C178.707 31.065 179.184 31.6717 179.478 32.443C179.782 33.2057 179.933 34.0767 179.933 35.056C179.933 35.4373 179.933 35.9227 179.933 36.512C179.933 37.1013 179.933 37.799 179.933 38.605V44H176.514ZM184.185 38.202V35.771H193.844L193.454 36.421C193.454 36.369 193.454 36.3127 193.454 36.252C193.454 36.1827 193.454 36.1263 193.454 36.083C193.454 35.485 193.319 34.926 193.051 34.406C192.782 33.8773 192.375 33.4527 191.829 33.132C191.283 32.8027 190.589 32.638 189.749 32.638C188.917 32.638 188.193 32.8157 187.578 33.171C186.971 33.5177 186.499 34.0203 186.161 34.679C185.831 35.3377 185.667 36.1263 185.667 37.045C185.667 37.9897 185.827 38.8043 186.148 39.489C186.468 40.165 186.936 40.685 187.552 41.049C188.176 41.4043 188.934 41.582 189.827 41.582C190.433 41.582 190.958 41.5257 191.4 41.413C191.842 41.3003 192.201 41.1487 192.479 40.958C192.765 40.7587 192.977 40.5463 193.116 40.321C193.263 40.0957 193.35 39.8703 193.376 39.645H196.782C196.73 40.2257 196.535 40.7933 196.197 41.348C195.867 41.894 195.404 42.3923 194.806 42.843C194.208 43.285 193.48 43.6403 192.622 43.909C191.772 44.169 190.802 44.299 189.71 44.299C188.228 44.299 186.932 43.9957 185.823 43.389C184.713 42.7823 183.847 41.9373 183.223 40.854C182.607 39.7707 182.3 38.5313 182.3 37.136C182.3 35.706 182.612 34.4537 183.236 33.379C183.868 32.3043 184.744 31.468 185.862 30.87C186.98 30.2633 188.262 29.96 189.71 29.96C191.2 29.96 192.487 30.2633 193.571 30.87C194.663 31.4767 195.503 32.3217 196.093 33.405C196.682 34.4797 196.977 35.732 196.977 37.162C196.977 37.344 196.972 37.539 196.964 37.747C196.955 37.955 196.942 38.1067 196.925 38.202H184.185Z" fill="black"/>
<path d="M214.953 42.635C215.768 42.713 216.483 42.8647 217.098 43.09C217.714 43.3153 218.195 43.649 218.541 44.091C218.888 44.5417 219.061 45.1397 219.061 45.885C219.061 46.717 218.78 47.4363 218.216 48.043C217.653 48.6497 216.825 49.1177 215.733 49.447C214.65 49.7763 213.315 49.941 211.729 49.941C209.424 49.941 207.652 49.6073 206.412 48.94C205.173 48.2813 204.553 47.3843 204.553 46.249C204.553 45.9283 204.592 45.638 204.67 45.378C204.748 45.118 204.844 44.9013 204.956 44.728L208.089 45.183C208.037 45.2523 207.985 45.3607 207.933 45.508C207.881 45.664 207.855 45.8503 207.855 46.067C207.855 46.6043 208.215 46.99 208.934 47.224C209.662 47.4667 210.629 47.588 211.833 47.588C212.717 47.588 213.454 47.5273 214.043 47.406C214.641 47.2847 215.092 47.1113 215.395 46.886C215.707 46.6607 215.863 46.3963 215.863 46.093C215.863 45.6423 215.66 45.352 215.252 45.222C214.845 45.092 214.36 45.0053 213.796 44.962L208.557 44.481C207.621 44.3857 206.85 44.1083 206.243 43.649C205.645 43.1897 205.346 42.583 205.346 41.829C205.346 41.3697 205.468 40.945 205.71 40.555C205.962 40.165 206.248 39.84 206.568 39.58C206.889 39.3113 207.162 39.1467 207.387 39.086L209.337 40.048C209.155 40.074 208.939 40.191 208.687 40.399C208.445 40.607 208.323 40.854 208.323 41.14C208.323 41.4087 208.445 41.634 208.687 41.816C208.93 41.9893 209.398 42.1107 210.091 42.18L214.953 42.635ZM216.5 30.194H219.568L218.32 35.55C218.086 36.5553 217.709 37.4567 217.189 38.254C216.669 39.0513 215.976 39.6797 215.109 40.139C214.243 40.5983 213.151 40.828 211.833 40.828C210.464 40.828 209.281 40.607 208.284 40.165C207.296 39.7143 206.534 39.086 205.996 38.28C205.459 37.4653 205.19 36.5293 205.19 35.472C205.19 34.3887 205.463 33.4353 206.009 32.612C206.564 31.78 207.322 31.13 208.284 30.662C209.255 30.194 210.351 29.96 211.573 29.96C212.561 29.96 213.45 30.1247 214.238 30.454C215.027 30.7747 215.655 31.195 216.123 31.715C216.6 32.235 216.856 32.7897 216.89 33.379L216.123 33.522L216.5 30.194ZM211.82 38.189C212.488 38.189 213.064 38.0807 213.549 37.864C214.035 37.6473 214.412 37.3353 214.68 36.928C214.949 36.512 215.083 36.0093 215.083 35.42C215.083 34.8393 214.949 34.341 214.68 33.925C214.412 33.509 214.035 33.1927 213.549 32.976C213.064 32.7507 212.492 32.638 211.833 32.638C211.192 32.638 210.624 32.7507 210.13 32.976C209.636 33.2013 209.246 33.5263 208.96 33.951C208.683 34.367 208.544 34.8653 208.544 35.446C208.544 36.0267 208.679 36.525 208.947 36.941C209.225 37.3483 209.606 37.6603 210.091 37.877C210.585 38.085 211.162 38.189 211.82 38.189ZM225.732 44.286C224.701 44.286 223.795 44.1257 223.015 43.805C222.235 43.4757 221.624 43.0033 221.182 42.388C220.74 41.7727 220.519 41.0317 220.519 40.165C220.519 39.2203 220.775 38.4447 221.286 37.838C221.806 37.2227 222.504 36.7503 223.379 36.421C224.254 36.083 225.225 35.8663 226.291 35.771C227.868 35.615 228.969 35.4677 229.593 35.329C230.226 35.1817 230.542 34.9477 230.542 34.627C230.542 34.6183 230.542 34.614 230.542 34.614C230.542 34.6053 230.542 34.601 230.542 34.601C230.542 33.9943 230.269 33.5263 229.723 33.197C229.177 32.8677 228.406 32.703 227.409 32.703C226.36 32.703 225.554 32.8893 224.991 33.262C224.436 33.626 224.159 34.2067 224.159 35.004H220.779C220.779 33.9207 221.065 33.0063 221.637 32.261C222.218 31.507 223.011 30.935 224.016 30.545C225.021 30.155 226.161 29.96 227.435 29.96C228.622 29.96 229.71 30.1377 230.698 30.493C231.686 30.8483 232.479 31.3857 233.077 32.105C233.675 32.8243 233.974 33.7213 233.974 34.796C233.974 34.978 233.974 35.16 233.974 35.342C233.974 35.524 233.974 35.706 233.974 35.888V41.088C233.974 41.4173 233.983 41.7423 234 42.063C234.026 42.375 234.074 42.6567 234.143 42.908C234.23 43.1853 234.334 43.4193 234.455 43.61C234.576 43.8007 234.672 43.9307 234.741 44H231.361C231.3 43.9393 231.214 43.8223 231.101 43.649C230.997 43.467 230.902 43.259 230.815 43.025C230.728 42.765 230.663 42.4877 230.62 42.193C230.577 41.8897 230.555 41.556 230.555 41.192L231.231 41.66C230.971 42.1887 230.572 42.6523 230.035 43.051C229.506 43.441 228.874 43.7443 228.137 43.961C227.4 44.1777 226.599 44.286 225.732 44.286ZM226.564 41.595C227.275 41.595 227.933 41.4737 228.54 41.231C229.147 40.9883 229.636 40.6157 230.009 40.113C230.382 39.6017 230.568 38.9473 230.568 38.15V36.304L231.4 37.24C230.845 37.448 230.178 37.6213 229.398 37.76C228.618 37.89 227.829 37.994 227.032 38.072C226.009 38.1673 225.238 38.345 224.718 38.605C224.207 38.865 223.951 39.2897 223.951 39.879C223.951 40.451 224.168 40.88 224.601 41.166C225.034 41.452 225.689 41.595 226.564 41.595ZM245.416 44V38.397C245.416 37.8857 245.416 37.4393 245.416 37.058C245.416 36.668 245.416 36.343 245.416 36.083C245.416 35.745 245.395 35.394 245.351 35.03C245.308 34.6573 245.213 34.315 245.065 34.003C244.918 33.691 244.688 33.4397 244.376 33.249C244.073 33.0497 243.653 32.95 243.115 32.95C242.595 32.95 242.153 33.0583 241.789 33.275C241.434 33.483 241.139 33.7647 240.905 34.12C240.68 34.4667 240.515 34.8653 240.411 35.316C240.307 35.758 240.255 36.213 240.255 36.681L239.111 35.914C239.111 34.7787 239.324 33.7647 239.748 32.872C240.173 31.9793 240.775 31.273 241.555 30.753C242.344 30.2243 243.276 29.96 244.35 29.96C245.46 29.96 246.339 30.194 246.989 30.662C247.639 31.1213 248.103 31.7453 248.38 32.534C248.666 33.3227 248.809 34.2067 248.809 35.186C248.809 35.55 248.809 36.0353 248.809 36.642C248.809 37.24 248.809 37.9463 248.809 38.761V44H245.416ZM236.836 44V30.194H240.255V44H236.836ZM253.944 44V38.41C253.944 37.864 253.944 37.4003 253.944 37.019C253.944 36.6377 253.944 36.317 253.944 36.057C253.944 35.693 253.923 35.329 253.879 34.965C253.836 34.5923 253.741 34.2587 253.593 33.964C253.446 33.6607 253.216 33.418 252.904 33.236C252.592 33.0453 252.168 32.95 251.63 32.95C251.102 32.95 250.655 33.054 250.291 33.262C249.936 33.47 249.65 33.7473 249.433 34.094C249.217 34.4407 249.056 34.8307 248.952 35.264C248.857 35.6973 248.809 36.1307 248.809 36.564L247.665 35.81C247.665 34.7093 247.873 33.717 248.289 32.833C248.705 31.949 249.303 31.2513 250.083 30.74C250.863 30.22 251.791 29.96 252.865 29.96C253.949 29.96 254.82 30.181 255.478 30.623C256.137 31.065 256.614 31.6717 256.908 32.443C257.212 33.2057 257.363 34.0767 257.363 35.056C257.363 35.4373 257.363 35.9227 257.363 36.512C257.363 37.1013 257.363 37.799 257.363 38.605V44H253.944ZM261.615 38.202V35.771H271.274L270.884 36.421C270.884 36.369 270.884 36.3127 270.884 36.252C270.884 36.1827 270.884 36.1263 270.884 36.083C270.884 35.485 270.75 34.926 270.481 34.406C270.212 33.8773 269.805 33.4527 269.259 33.132C268.713 32.8027 268.02 32.638 267.179 32.638C266.347 32.638 265.623 32.8157 265.008 33.171C264.401 33.5177 263.929 34.0203 263.591 34.679C263.262 35.3377 263.097 36.1263 263.097 37.045C263.097 37.9897 263.257 38.8043 263.578 39.489C263.899 40.165 264.367 40.685 264.982 41.049C265.606 41.4043 266.364 41.582 267.257 41.582C267.864 41.582 268.388 41.5257 268.83 41.413C269.272 41.3003 269.632 41.1487 269.909 40.958C270.195 40.7587 270.407 40.5463 270.546 40.321C270.693 40.0957 270.78 39.8703 270.806 39.645H274.212C274.16 40.2257 273.965 40.7933 273.627 41.348C273.298 41.894 272.834 42.3923 272.236 42.843C271.638 43.285 270.91 43.6403 270.052 43.909C269.203 44.169 268.232 44.299 267.14 44.299C265.658 44.299 264.362 43.9957 263.253 43.389C262.144 42.7823 261.277 41.9373 260.653 40.854C260.038 39.7707 259.73 38.5313 259.73 37.136C259.73 35.706 260.042 34.4537 260.666 33.379C261.299 32.3043 262.174 31.468 263.292 30.87C264.41 30.2633 265.693 29.96 267.14 29.96C268.631 29.96 269.918 30.2633 271.001 30.87C272.093 31.4767 272.934 32.3217 273.523 33.405C274.112 34.4797 274.407 35.732 274.407 37.162C274.407 37.344 274.403 37.539 274.394 37.747C274.385 37.955 274.372 38.1067 274.355 38.202H261.615Z" fill="url(#paint0_linear_137_1493)"/>
<defs>
<linearGradient id="paint0_linear_137_1493" x1="207.901" y1="22" x2="284.664" y2="34.119" gradientUnits="userSpaceOnUse">
<stop stop-color="#FEAA4C"/>
<stop offset="1" stop-color="#F66756"/>
</linearGradient>
</defs>
</svg>
