<svg width="451" height="74" viewBox="0 0 451 74" fill="none" xmlns="http://www.w3.org/2000/svg">
<path d="M451 55.0535C451 57.8444 433.835 55.0535 397.434 55.0535C355.102 55.0535 327 59.4332 327 55.0535C327 52.2625 355.102 50 397.434 50C439.767 50 451 52.2625 451 55.0535Z" fill="black"/>
<path d="M3.07805 49V18.025H8.62205V47.341L6.12305 44.422H20.361V49H3.07805ZM26.3513 39.634V35.707H41.9543L41.3243 36.757C41.3243 36.673 41.3243 36.582 41.3243 36.484C41.3243 36.372 41.3243 36.281 41.3243 36.211C41.3243 35.245 41.1073 34.342 40.6733 33.502C40.2393 32.648 39.5813 31.962 38.6993 31.444C37.8173 30.912 36.6973 30.646 35.3393 30.646C33.9953 30.646 32.8263 30.933 31.8323 31.507C30.8523 32.067 30.0893 32.879 29.5433 33.943C29.0113 35.007 28.7453 36.281 28.7453 37.765C28.7453 39.291 29.0043 40.607 29.5223 41.713C30.0403 42.805 30.7963 43.645 31.7903 44.233C32.7983 44.807 34.0233 45.094 35.4653 45.094C36.4453 45.094 37.2923 45.003 38.0063 44.821C38.7203 44.639 39.3013 44.394 39.7493 44.086C40.2113 43.764 40.5543 43.421 40.7783 43.057C41.0163 42.693 41.1563 42.329 41.1983 41.965H46.7003C46.6163 42.903 46.3013 43.82 45.7553 44.716C45.2233 45.598 44.4743 46.403 43.5083 47.131C42.5423 47.845 41.3663 48.419 39.9803 48.853C38.6083 49.273 37.0403 49.483 35.2763 49.483C32.8823 49.483 30.7893 48.993 28.9973 48.013C27.2053 47.033 25.8053 45.668 24.7973 43.918C23.8033 42.168 23.3063 40.166 23.3063 37.912C23.3063 35.602 23.8103 33.579 24.8183 31.843C25.8403 30.107 27.2543 28.756 29.0603 27.79C30.8663 26.81 32.9383 26.32 35.2763 26.32C37.6843 26.32 39.7633 26.81 41.5133 27.79C43.2773 28.77 44.6353 30.135 45.5873 31.885C46.5393 33.621 47.0153 35.644 47.0153 37.954C47.0153 38.248 47.0083 38.563 46.9943 38.899C46.9803 39.235 46.9593 39.48 46.9313 39.634H26.3513ZM61.0666 49.42C60.2686 49.42 59.4566 49.343 58.6306 49.189C57.8046 49.035 57.0486 48.748 56.3626 48.328C55.6766 47.908 55.1236 47.292 54.7036 46.48C54.2836 45.668 54.0736 44.597 54.0736 43.267C54.0736 42.959 54.0736 42.651 54.0736 42.343C54.0736 42.021 54.0736 41.692 54.0736 41.356V31.108H48.8026V26.698H50.9446C51.6726 26.698 52.2466 26.67 52.6666 26.614C53.0866 26.544 53.3946 26.39 53.5906 26.152C53.7866 25.914 53.9126 25.543 53.9686 25.039C54.0386 24.521 54.0736 23.807 54.0736 22.897V19.348H59.6176V26.698H66.2536V31.108H59.6176V40.054C59.6176 40.32 59.6176 40.586 59.6176 40.852C59.6176 41.104 59.6176 41.349 59.6176 41.587C59.6176 42.623 59.7436 43.456 59.9956 44.086C60.2476 44.716 60.8426 45.031 61.7806 45.031C62.2286 45.031 62.6486 44.989 63.0406 44.905C63.4466 44.821 63.7476 44.737 63.9436 44.653V48.979C63.6776 49.077 63.2926 49.175 62.7886 49.273C62.2846 49.371 61.7106 49.42 61.0666 49.42ZM71.9151 23.17C71.0051 23.17 70.2701 22.904 69.7101 22.372C69.1641 21.84 68.8911 21.126 68.8911 20.23C68.8911 19.32 69.1921 18.571 69.7941 17.983C70.3961 17.395 71.2641 17.101 72.3981 17.101C73.5461 17.101 74.4211 17.486 75.0231 18.256C75.6391 19.012 75.9471 19.985 75.9471 21.175C75.9471 22.309 75.6671 23.317 75.1071 24.199C74.5471 25.067 73.8471 25.809 73.0071 26.425C72.1671 27.027 71.3271 27.496 70.4871 27.832L69.7941 26.467C70.3821 26.229 70.9561 25.907 71.5161 25.501C72.0901 25.095 72.5661 24.647 72.9441 24.157C73.3221 23.653 73.5111 23.142 73.5111 22.624C73.4551 22.708 73.2871 22.82 73.0071 22.96C72.7271 23.1 72.3631 23.17 71.9151 23.17ZM87.5716 49.462C86.2416 49.462 84.9746 49.315 83.7706 49.021C82.5806 48.727 81.5166 48.286 80.5786 47.698C79.6546 47.11 78.9196 46.382 78.3736 45.514C77.8416 44.632 77.5756 43.617 77.5756 42.469C77.5756 42.385 77.5756 42.301 77.5756 42.217C77.5756 42.133 77.5756 42.056 77.5756 41.986H83.0776C83.0776 42.056 83.0776 42.119 83.0776 42.175C83.0776 42.217 83.0776 42.28 83.0776 42.364C83.0776 43.274 83.4906 43.96 84.3166 44.422C85.1566 44.87 86.2976 45.094 87.7396 45.094C88.5236 45.094 89.2586 45.01 89.9446 44.842C90.6446 44.674 91.2046 44.415 91.6246 44.065C92.0586 43.715 92.2756 43.267 92.2756 42.721C92.2756 41.839 91.8206 41.209 90.9106 40.831C90.0146 40.453 88.6006 40.11 86.6686 39.802C85.6046 39.62 84.5546 39.375 83.5186 39.067C82.4826 38.759 81.5376 38.346 80.6836 37.828C79.8436 37.31 79.1646 36.666 78.6466 35.896C78.1426 35.126 77.8906 34.188 77.8906 33.082C77.8906 31.612 78.3246 30.38 79.1926 29.386C80.0746 28.378 81.2506 27.615 82.7206 27.097C84.2046 26.579 85.8356 26.32 87.6136 26.32C89.3216 26.32 90.9106 26.6 92.3806 27.16C93.8506 27.72 95.0336 28.525 95.9296 29.575C96.8396 30.625 97.2946 31.892 97.2946 33.376C97.2946 33.432 97.2946 33.495 97.2946 33.565C97.2946 33.621 97.2946 33.67 97.2946 33.712H91.8346C91.8346 33.67 91.8346 33.628 91.8346 33.586C91.8346 33.544 91.8346 33.495 91.8346 33.439C91.8346 32.795 91.6316 32.27 91.2256 31.864C90.8196 31.458 90.2946 31.157 89.6506 30.961C89.0066 30.765 88.3276 30.667 87.6136 30.667C86.9836 30.667 86.3326 30.737 85.6606 30.877C84.9886 31.003 84.4286 31.234 83.9806 31.57C83.5326 31.892 83.3086 32.347 83.3086 32.935C83.3086 33.495 83.5396 33.95 84.0016 34.3C84.4636 34.65 85.1076 34.944 85.9336 35.182C86.7596 35.406 87.7116 35.609 88.7896 35.791C89.8116 35.959 90.8406 36.19 91.8766 36.484C92.9266 36.778 93.8856 37.17 94.7536 37.66C95.6216 38.15 96.3216 38.794 96.8536 39.592C97.3996 40.376 97.6726 41.349 97.6726 42.511C97.6726 43.743 97.3926 44.793 96.8326 45.661C96.2726 46.529 95.5096 47.25 94.5436 47.824C93.5916 48.384 92.5136 48.797 91.3096 49.063C90.1056 49.329 88.8596 49.462 87.5716 49.462ZM111.721 58.177V26.698H117.244V58.177H111.721ZM124.279 49.462C122.543 49.462 120.933 49.014 119.449 48.118C117.979 47.208 116.789 45.969 115.879 44.401C114.983 42.833 114.535 41.069 114.535 39.109C114.535 39.053 114.535 39.004 114.535 38.962C114.535 38.906 114.535 38.857 114.535 38.815L117.265 38.752C117.265 38.78 117.265 38.815 117.265 38.857C117.265 38.899 117.265 38.934 117.265 38.962C117.265 40.054 117.538 41.027 118.084 41.881C118.63 42.721 119.337 43.386 120.205 43.876C121.087 44.352 122.025 44.59 123.019 44.59C124.629 44.59 126.001 44.037 127.135 42.931C128.269 41.825 128.836 40.11 128.836 37.786C128.836 35.448 128.269 33.74 127.135 32.662C126.015 31.57 124.643 31.024 123.019 31.024C122.039 31.024 121.108 31.262 120.226 31.738C119.358 32.2 118.644 32.844 118.084 33.67C117.538 34.496 117.265 35.462 117.265 36.568L114.535 36.442C114.535 34.468 114.983 32.718 115.879 31.192C116.789 29.666 117.979 28.476 119.449 27.622C120.933 26.754 122.543 26.32 124.279 26.32C126.085 26.32 127.765 26.761 129.319 27.643C130.887 28.525 132.147 29.82 133.099 31.528C134.065 33.236 134.548 35.322 134.548 37.786C134.548 40.32 134.079 42.455 133.141 44.191C132.203 45.927 130.957 47.243 129.403 48.139C127.849 49.021 126.141 49.462 124.279 49.462ZM144.369 16.177V49H138.93V16.177H144.369ZM157.157 49.462C155.491 49.462 154.028 49.203 152.768 48.685C151.508 48.153 150.521 47.39 149.807 46.396C149.093 45.402 148.736 44.205 148.736 42.805C148.736 41.279 149.149 40.026 149.975 39.046C150.815 38.052 151.942 37.289 153.356 36.757C154.77 36.211 156.338 35.861 158.06 35.707C160.608 35.455 162.386 35.217 163.394 34.993C164.416 34.755 164.927 34.377 164.927 33.859C164.927 33.845 164.927 33.838 164.927 33.838C164.927 33.824 164.927 33.817 164.927 33.817C164.927 32.837 164.486 32.081 163.604 31.549C162.722 31.017 161.476 30.751 159.866 30.751C158.172 30.751 156.87 31.052 155.96 31.654C155.064 32.242 154.616 33.18 154.616 34.468H149.156C149.156 32.718 149.618 31.241 150.542 30.037C151.48 28.819 152.761 27.895 154.385 27.265C156.009 26.635 157.85 26.32 159.908 26.32C161.826 26.32 163.583 26.607 165.179 27.181C166.775 27.755 168.056 28.623 169.022 29.785C169.988 30.947 170.471 32.396 170.471 34.132C170.471 34.426 170.471 34.72 170.471 35.014C170.471 35.308 170.471 35.602 170.471 35.896V44.296C170.471 44.828 170.485 45.353 170.513 45.871C170.555 46.375 170.632 46.83 170.744 47.236C170.884 47.684 171.052 48.062 171.248 48.37C171.444 48.678 171.598 48.888 171.71 49H166.25C166.152 48.902 166.012 48.713 165.83 48.433C165.662 48.139 165.508 47.803 165.368 47.425C165.228 47.005 165.123 46.557 165.053 46.081C164.983 45.591 164.948 45.052 164.948 44.464L166.04 45.22C165.62 46.074 164.976 46.823 164.108 47.467C163.254 48.097 162.232 48.587 161.042 48.937C159.852 49.287 158.557 49.462 157.157 49.462ZM158.501 45.115C159.649 45.115 160.713 44.919 161.693 44.527C162.673 44.135 163.464 43.533 164.066 42.721C164.668 41.895 164.969 40.838 164.969 39.55V36.568L166.313 38.08C165.417 38.416 164.339 38.696 163.079 38.92C161.819 39.13 160.545 39.298 159.257 39.424C157.605 39.578 156.359 39.865 155.519 40.285C154.693 40.705 154.28 41.391 154.28 42.343C154.28 43.267 154.63 43.96 155.33 44.422C156.03 44.884 157.087 45.115 158.501 45.115ZM175.806 58.576C175.148 58.576 174.56 58.541 174.042 58.471C173.524 58.415 173.202 58.359 173.076 58.303V53.998C173.258 54.082 173.566 54.145 174 54.187C174.448 54.243 174.91 54.271 175.386 54.271C176.156 54.271 176.821 54.117 177.381 53.809C177.955 53.501 178.445 53.074 178.851 52.528C179.257 51.996 179.579 51.373 179.817 50.659L180.3 49.252L172.614 26.698H178.389L183.66 45.304H182.988L188.133 26.698H193.803L185.991 50.365C185.445 52.003 184.78 53.438 183.996 54.67C183.226 55.902 182.197 56.861 180.909 57.547C179.621 58.233 177.92 58.576 175.806 58.576ZM215.95 49.462C214.62 49.462 213.353 49.315 212.149 49.021C210.959 48.727 209.895 48.286 208.957 47.698C208.033 47.11 207.298 46.382 206.752 45.514C206.22 44.632 205.954 43.617 205.954 42.469C205.954 42.385 205.954 42.301 205.954 42.217C205.954 42.133 205.954 42.056 205.954 41.986H211.456C211.456 42.056 211.456 42.119 211.456 42.175C211.456 42.217 211.456 42.28 211.456 42.364C211.456 43.274 211.869 43.96 212.695 44.422C213.535 44.87 214.676 45.094 216.118 45.094C216.902 45.094 217.637 45.01 218.323 44.842C219.023 44.674 219.583 44.415 220.003 44.065C220.437 43.715 220.654 43.267 220.654 42.721C220.654 41.839 220.199 41.209 219.289 40.831C218.393 40.453 216.979 40.11 215.047 39.802C213.983 39.62 212.933 39.375 211.897 39.067C210.861 38.759 209.916 38.346 209.062 37.828C208.222 37.31 207.543 36.666 207.025 35.896C206.521 35.126 206.269 34.188 206.269 33.082C206.269 31.612 206.703 30.38 207.571 29.386C208.453 28.378 209.629 27.615 211.099 27.097C212.583 26.579 214.214 26.32 215.992 26.32C217.7 26.32 219.289 26.6 220.759 27.16C222.229 27.72 223.412 28.525 224.308 29.575C225.218 30.625 225.673 31.892 225.673 33.376C225.673 33.432 225.673 33.495 225.673 33.565C225.673 33.621 225.673 33.67 225.673 33.712H220.213C220.213 33.67 220.213 33.628 220.213 33.586C220.213 33.544 220.213 33.495 220.213 33.439C220.213 32.795 220.01 32.27 219.604 31.864C219.198 31.458 218.673 31.157 218.029 30.961C217.385 30.765 216.706 30.667 215.992 30.667C215.362 30.667 214.711 30.737 214.039 30.877C213.367 31.003 212.807 31.234 212.359 31.57C211.911 31.892 211.687 32.347 211.687 32.935C211.687 33.495 211.918 33.95 212.38 34.3C212.842 34.65 213.486 34.944 214.312 35.182C215.138 35.406 216.09 35.609 217.168 35.791C218.19 35.959 219.219 36.19 220.255 36.484C221.305 36.778 222.264 37.17 223.132 37.66C224 38.15 224.7 38.794 225.232 39.592C225.778 40.376 226.051 41.349 226.051 42.511C226.051 43.743 225.771 44.793 225.211 45.661C224.651 46.529 223.888 47.25 222.922 47.824C221.97 48.384 220.892 48.797 219.688 49.063C218.484 49.329 217.238 49.462 215.95 49.462ZM241.065 49.441C238.713 49.441 236.641 48.951 234.849 47.971C233.057 46.977 231.65 45.605 230.628 43.855C229.62 42.105 229.116 40.103 229.116 37.849C229.116 35.581 229.62 33.586 230.628 31.864C231.65 30.128 233.057 28.77 234.849 27.79C236.641 26.81 238.713 26.32 241.065 26.32C243.417 26.32 245.489 26.81 247.281 27.79C249.073 28.77 250.473 30.128 251.481 31.864C252.503 33.586 253.014 35.581 253.014 37.849C253.014 40.103 252.503 42.105 251.481 43.855C250.473 45.605 249.073 46.977 247.281 47.971C245.489 48.951 243.417 49.441 241.065 49.441ZM241.065 44.926C242.339 44.926 243.452 44.632 244.404 44.044C245.356 43.456 246.098 42.637 246.63 41.587C247.162 40.523 247.428 39.277 247.428 37.849C247.428 36.421 247.162 35.189 246.63 34.153C246.098 33.103 245.356 32.291 244.404 31.717C243.452 31.143 242.339 30.856 241.065 30.856C239.805 30.856 238.692 31.143 237.726 31.717C236.774 32.291 236.032 33.103 235.5 34.153C234.968 35.189 234.702 36.421 234.702 37.849C234.702 39.277 234.968 40.523 235.5 41.587C236.032 42.637 236.774 43.456 237.726 44.044C238.692 44.632 239.805 44.926 241.065 44.926ZM270.939 49V39.949C270.939 39.123 270.939 38.402 270.939 37.786C270.939 37.156 270.939 36.631 270.939 36.211C270.939 35.665 270.904 35.098 270.834 34.51C270.764 33.908 270.61 33.355 270.372 32.851C270.134 32.347 269.763 31.941 269.259 31.633C268.769 31.311 268.09 31.15 267.222 31.15C266.382 31.15 265.668 31.325 265.08 31.675C264.506 32.011 264.03 32.466 263.652 33.04C263.288 33.6 263.022 34.244 262.854 34.972C262.686 35.686 262.602 36.421 262.602 37.177L260.754 35.938C260.754 34.104 261.097 32.466 261.783 31.024C262.469 29.582 263.442 28.441 264.702 27.601C265.976 26.747 267.481 26.32 269.217 26.32C271.009 26.32 272.43 26.698 273.48 27.454C274.53 28.196 275.279 29.204 275.727 30.478C276.189 31.752 276.42 33.18 276.42 34.762C276.42 35.35 276.42 36.134 276.42 37.114C276.42 38.08 276.42 39.221 276.42 40.537V49H270.939ZM257.079 49V26.698H262.602V49H257.079ZM284.715 49V39.97C284.715 39.088 284.715 38.339 284.715 37.723C284.715 37.107 284.715 36.589 284.715 36.169C284.715 35.581 284.68 34.993 284.61 34.405C284.54 33.803 284.386 33.264 284.148 32.788C283.91 32.298 283.539 31.906 283.035 31.612C282.531 31.304 281.845 31.15 280.977 31.15C280.123 31.15 279.402 31.318 278.814 31.654C278.24 31.99 277.778 32.438 277.428 32.998C277.078 33.558 276.819 34.188 276.651 34.888C276.497 35.588 276.42 36.288 276.42 36.988L274.572 35.77C274.572 33.992 274.908 32.389 275.58 30.961C276.252 29.533 277.218 28.406 278.478 27.58C279.738 26.74 281.236 26.32 282.972 26.32C284.722 26.32 286.129 26.677 287.193 27.391C288.257 28.105 289.027 29.085 289.503 30.331C289.993 31.563 290.238 32.97 290.238 34.552C290.238 35.168 290.238 35.952 290.238 36.904C290.238 37.856 290.238 38.983 290.238 40.285V49H284.715ZM297.106 39.634V35.707H312.709L312.079 36.757C312.079 36.673 312.079 36.582 312.079 36.484C312.079 36.372 312.079 36.281 312.079 36.211C312.079 35.245 311.862 34.342 311.428 33.502C310.994 32.648 310.336 31.962 309.454 31.444C308.572 30.912 307.452 30.646 306.094 30.646C304.75 30.646 303.581 30.933 302.587 31.507C301.607 32.067 300.844 32.879 300.298 33.943C299.766 35.007 299.5 36.281 299.5 37.765C299.5 39.291 299.759 40.607 300.277 41.713C300.795 42.805 301.551 43.645 302.545 44.233C303.553 44.807 304.778 45.094 306.22 45.094C307.2 45.094 308.047 45.003 308.761 44.821C309.475 44.639 310.056 44.394 310.504 44.086C310.966 43.764 311.309 43.421 311.533 43.057C311.771 42.693 311.911 42.329 311.953 41.965H317.455C317.371 42.903 317.056 43.82 316.51 44.716C315.978 45.598 315.229 46.403 314.263 47.131C313.297 47.845 312.121 48.419 310.735 48.853C309.363 49.273 307.795 49.483 306.031 49.483C303.637 49.483 301.544 48.993 299.752 48.013C297.96 47.033 296.56 45.668 295.552 43.918C294.558 42.168 294.061 40.166 294.061 37.912C294.061 35.602 294.565 33.579 295.573 31.843C296.595 30.107 298.009 28.756 299.815 27.79C301.621 26.81 303.693 26.32 306.031 26.32C308.439 26.32 310.518 26.81 312.268 27.79C314.032 28.77 315.39 30.135 316.342 31.885C317.294 33.621 317.77 35.644 317.77 37.954C317.77 38.248 317.763 38.563 317.749 38.899C317.735 39.235 317.714 39.48 317.686 39.634H297.106Z" fill="black"/>
<path d="M346.809 46.795C348.125 46.921 349.28 47.166 350.274 47.53C351.268 47.894 352.045 48.433 352.605 49.147C353.165 49.875 353.445 50.841 353.445 52.045C353.445 53.389 352.99 54.551 352.08 55.531C351.17 56.511 349.833 57.267 348.069 57.799C346.319 58.331 344.163 58.597 341.601 58.597C337.877 58.597 335.014 58.058 333.012 56.98C331.01 55.916 330.009 54.467 330.009 52.633C330.009 52.115 330.072 51.646 330.198 51.226C330.324 50.806 330.478 50.456 330.66 50.176L335.721 50.911C335.637 51.023 335.553 51.198 335.469 51.436C335.385 51.688 335.343 51.989 335.343 52.339C335.343 53.207 335.924 53.83 337.086 54.208C338.262 54.6 339.823 54.796 341.769 54.796C343.197 54.796 344.387 54.698 345.339 54.502C346.305 54.306 347.033 54.026 347.523 53.662C348.027 53.298 348.279 52.871 348.279 52.381C348.279 51.653 347.95 51.184 347.292 50.974C346.634 50.764 345.85 50.624 344.94 50.554L336.477 49.777C334.965 49.623 333.719 49.175 332.739 48.433C331.773 47.691 331.29 46.711 331.29 45.493C331.29 44.751 331.486 44.065 331.878 43.435C332.284 42.805 332.746 42.28 333.264 41.86C333.782 41.426 334.223 41.16 334.587 41.062L337.737 42.616C337.443 42.658 337.093 42.847 336.687 43.183C336.295 43.519 336.099 43.918 336.099 44.38C336.099 44.814 336.295 45.178 336.687 45.472C337.079 45.752 337.835 45.948 338.955 46.06L346.809 46.795ZM349.308 26.698H354.264L352.248 35.35C351.87 36.974 351.261 38.43 350.421 39.718C349.581 41.006 348.461 42.021 347.061 42.763C345.661 43.505 343.897 43.876 341.769 43.876C339.557 43.876 337.646 43.519 336.036 42.805C334.44 42.077 333.208 41.062 332.34 39.76C331.472 38.444 331.038 36.932 331.038 35.224C331.038 33.474 331.479 31.934 332.361 30.604C333.257 29.26 334.482 28.21 336.036 27.454C337.604 26.698 339.375 26.32 341.349 26.32C342.945 26.32 344.38 26.586 345.654 27.118C346.928 27.636 347.943 28.315 348.699 29.155C349.469 29.995 349.882 30.891 349.938 31.843L348.699 32.074L349.308 26.698ZM341.748 39.613C342.826 39.613 343.757 39.438 344.541 39.088C345.325 38.738 345.934 38.234 346.368 37.576C346.802 36.904 347.019 36.092 347.019 35.14C347.019 34.202 346.802 33.397 346.368 32.725C345.934 32.053 345.325 31.542 344.541 31.192C343.757 30.828 342.833 30.646 341.769 30.646C340.733 30.646 339.816 30.828 339.018 31.192C338.22 31.556 337.59 32.081 337.128 32.767C336.68 33.439 336.456 34.244 336.456 35.182C336.456 36.12 336.673 36.925 337.107 37.597C337.555 38.255 338.171 38.759 338.955 39.109C339.753 39.445 340.684 39.613 341.748 39.613ZM364.221 49.462C362.555 49.462 361.092 49.203 359.832 48.685C358.572 48.153 357.585 47.39 356.871 46.396C356.157 45.402 355.8 44.205 355.8 42.805C355.8 41.279 356.213 40.026 357.039 39.046C357.879 38.052 359.006 37.289 360.42 36.757C361.834 36.211 363.402 35.861 365.124 35.707C367.672 35.455 369.45 35.217 370.458 34.993C371.48 34.755 371.991 34.377 371.991 33.859C371.991 33.845 371.991 33.838 371.991 33.838C371.991 33.824 371.991 33.817 371.991 33.817C371.991 32.837 371.55 32.081 370.668 31.549C369.786 31.017 368.54 30.751 366.93 30.751C365.236 30.751 363.934 31.052 363.024 31.654C362.128 32.242 361.68 33.18 361.68 34.468H356.22C356.22 32.718 356.682 31.241 357.606 30.037C358.544 28.819 359.825 27.895 361.449 27.265C363.073 26.635 364.914 26.32 366.972 26.32C368.89 26.32 370.647 26.607 372.243 27.181C373.839 27.755 375.12 28.623 376.086 29.785C377.052 30.947 377.535 32.396 377.535 34.132C377.535 34.426 377.535 34.72 377.535 35.014C377.535 35.308 377.535 35.602 377.535 35.896V44.296C377.535 44.828 377.549 45.353 377.577 45.871C377.619 46.375 377.696 46.83 377.808 47.236C377.948 47.684 378.116 48.062 378.312 48.37C378.508 48.678 378.662 48.888 378.774 49H373.314C373.216 48.902 373.076 48.713 372.894 48.433C372.726 48.139 372.572 47.803 372.432 47.425C372.292 47.005 372.187 46.557 372.117 46.081C372.047 45.591 372.012 45.052 372.012 44.464L373.104 45.22C372.684 46.074 372.04 46.823 371.172 47.467C370.318 48.097 369.296 48.587 368.106 48.937C366.916 49.287 365.621 49.462 364.221 49.462ZM365.565 45.115C366.713 45.115 367.777 44.919 368.757 44.527C369.737 44.135 370.528 43.533 371.13 42.721C371.732 41.895 372.033 40.838 372.033 39.55V36.568L373.377 38.08C372.481 38.416 371.403 38.696 370.143 38.92C368.883 39.13 367.609 39.298 366.321 39.424C364.669 39.578 363.423 39.865 362.583 40.285C361.757 40.705 361.344 41.391 361.344 42.343C361.344 43.267 361.694 43.96 362.394 44.422C363.094 44.884 364.151 45.115 365.565 45.115ZM396.019 49V39.949C396.019 39.123 396.019 38.402 396.019 37.786C396.019 37.156 396.019 36.631 396.019 36.211C396.019 35.665 395.984 35.098 395.914 34.51C395.844 33.908 395.69 33.355 395.452 32.851C395.214 32.347 394.843 31.941 394.339 31.633C393.849 31.311 393.17 31.15 392.302 31.15C391.462 31.15 390.748 31.325 390.16 31.675C389.586 32.011 389.11 32.466 388.732 33.04C388.368 33.6 388.102 34.244 387.934 34.972C387.766 35.686 387.682 36.421 387.682 37.177L385.834 35.938C385.834 34.104 386.177 32.466 386.863 31.024C387.549 29.582 388.522 28.441 389.782 27.601C391.056 26.747 392.561 26.32 394.297 26.32C396.089 26.32 397.51 26.698 398.56 27.454C399.61 28.196 400.359 29.204 400.807 30.478C401.269 31.752 401.5 33.18 401.5 34.762C401.5 35.35 401.5 36.134 401.5 37.114C401.5 38.08 401.5 39.221 401.5 40.537V49H396.019ZM382.159 49V26.698H387.682V49H382.159ZM409.795 49V39.97C409.795 39.088 409.795 38.339 409.795 37.723C409.795 37.107 409.795 36.589 409.795 36.169C409.795 35.581 409.76 34.993 409.69 34.405C409.62 33.803 409.466 33.264 409.228 32.788C408.99 32.298 408.619 31.906 408.115 31.612C407.611 31.304 406.925 31.15 406.057 31.15C405.203 31.15 404.482 31.318 403.894 31.654C403.32 31.99 402.858 32.438 402.508 32.998C402.158 33.558 401.899 34.188 401.731 34.888C401.577 35.588 401.5 36.288 401.5 36.988L399.652 35.77C399.652 33.992 399.988 32.389 400.66 30.961C401.332 29.533 402.298 28.406 403.558 27.58C404.818 26.74 406.316 26.32 408.052 26.32C409.802 26.32 411.209 26.677 412.273 27.391C413.337 28.105 414.107 29.085 414.583 30.331C415.073 31.563 415.318 32.97 415.318 34.552C415.318 35.168 415.318 35.952 415.318 36.904C415.318 37.856 415.318 38.983 415.318 40.285V49H409.795ZM422.186 39.634V35.707H437.789L437.159 36.757C437.159 36.673 437.159 36.582 437.159 36.484C437.159 36.372 437.159 36.281 437.159 36.211C437.159 35.245 436.942 34.342 436.508 33.502C436.074 32.648 435.416 31.962 434.534 31.444C433.652 30.912 432.532 30.646 431.174 30.646C429.83 30.646 428.661 30.933 427.667 31.507C426.687 32.067 425.924 32.879 425.378 33.943C424.846 35.007 424.58 36.281 424.58 37.765C424.58 39.291 424.839 40.607 425.357 41.713C425.875 42.805 426.631 43.645 427.625 44.233C428.633 44.807 429.858 45.094 431.3 45.094C432.28 45.094 433.127 45.003 433.841 44.821C434.555 44.639 435.136 44.394 435.584 44.086C436.046 43.764 436.389 43.421 436.613 43.057C436.851 42.693 436.991 42.329 437.033 41.965H442.535C442.451 42.903 442.136 43.82 441.59 44.716C441.058 45.598 440.309 46.403 439.343 47.131C438.377 47.845 437.201 48.419 435.815 48.853C434.443 49.273 432.875 49.483 431.111 49.483C428.717 49.483 426.624 48.993 424.832 48.013C423.04 47.033 421.64 45.668 420.632 43.918C419.638 42.168 419.141 40.166 419.141 37.912C419.141 35.602 419.645 33.579 420.653 31.843C421.675 30.107 423.089 28.756 424.895 27.79C426.701 26.81 428.773 26.32 431.111 26.32C433.519 26.32 435.598 26.81 437.348 27.79C439.112 28.77 440.47 30.135 441.422 31.885C442.374 33.621 442.85 35.644 442.85 37.954C442.85 38.248 442.843 38.563 442.829 38.899C442.815 39.235 442.794 39.48 442.766 39.634H422.186Z" fill="url(#paint0_linear_137_1185)"/>
<defs>
<linearGradient id="paint0_linear_137_1185" x1="335.203" y1="22" x2="454.336" y2="52.3247" gradientUnits="userSpaceOnUse">
<stop stop-color="#FEAA4C"/>
<stop offset="1" stop-color="#F66756"/>
</linearGradient>
</defs>
</svg>
