<svg width="330" height="58" viewBox="0 0 330 58" fill="none" xmlns="http://www.w3.org/2000/svg">
<rect x="0.25" y="0.25" width="82" height="13.9588" rx="2.75" stroke="white" stroke-width="0.5"/>
<rect x="82.75" y="0.25" width="82" height="13.9588" rx="2.75" stroke="white" stroke-width="0.5"/>
<rect x="82.75" y="14.7087" width="82" height="13.9588" rx="2.75" stroke="white" stroke-width="0.5"/>
<rect x="82.75" y="29.1675" width="82" height="13.9588" rx="2.75" stroke="white" stroke-width="0.5"/>
<rect x="82.75" y="43.6263" width="82" height="13.9588" rx="2.75" stroke="white" stroke-width="0.5"/>
<rect x="165.25" y="0.25" width="82" height="13.9588" rx="2.75" stroke="white" stroke-width="0.5"/>
<rect x="165.25" y="14.7087" width="82" height="13.9588" rx="2.75" stroke="white" stroke-width="0.5"/>
<rect x="165.25" y="29.1675" width="82" height="13.9588" rx="2.75" stroke="white" stroke-width="0.5"/>
<rect x="247.75" y="0.25" width="82" height="13.9588" rx="2.75" stroke="white" stroke-width="0.5"/>
<rect x="247.75" y="14.7087" width="82" height="13.9588" rx="2.75" stroke="white" stroke-width="0.5"/>
<rect x="247.75" y="29.1675" width="82" height="13.9588" rx="2.75" stroke="white" stroke-width="0.5"/>
<rect x="247.75" y="43.6263" width="82" height="13.9588" rx="2.75" stroke="white" stroke-width="0.5"/>
<rect x="0.25" y="29.1675" width="82" height="13.9588" rx="2.75" stroke="white" stroke-width="0.5"/>
<rect x="0.25" y="43.6263" width="82" height="13.9588" rx="2.75" stroke="white" stroke-width="0.5"/>
</svg>
