<svg width="214" height="121" viewBox="0 0 214 121" fill="none" xmlns="http://www.w3.org/2000/svg">
<path d="M16.9865 9.42259C19.3529 6.19451 23.6452 5.04545 27.3079 6.65953L38.6774 11.6699C41.1889 12.7767 43.8715 13.4445 46.6087 13.6444L60.5153 14.6598C67.6146 15.1781 74.6382 16.453 81.4668 18.4627L114.963 28.3209L146.461 37.5911C152.924 39.493 159.177 42.0431 165.127 45.2025L180.709 53.477C182.249 54.2944 183.903 54.8736 185.616 55.1948L197.92 57.5024C204.653 58.7652 207.772 66.6136 203.742 72.1532C203.114 73.0167 202.638 73.9816 202.337 75.006L196.506 94.8194C193.307 105.687 183.18 113.03 171.856 112.691L170.371 112.647C167.489 112.561 164.638 112.01 161.931 111.017L135.856 101.453L96.8207 89.9646L54.2546 72.9985L27.2539 65.052L15.1693 61.4953C8.63848 59.5733 5.96817 51.7728 9.95093 46.2517C10.6044 45.3457 11.0994 44.3355 11.4148 43.2639L14.1361 34.0173C15.1412 30.6022 15.6127 27.0523 15.5337 23.4932L15.3378 14.6559C15.2961 12.7775 15.8757 10.9379 16.9865 9.42259Z" fill="black"/>
<path d="M45.4697 50.6072L49.9419 35.4116L57.3325 37.5867C59.2005 38.1532 60.4758 38.9205 61.1582 39.8885C61.8452 40.8412 61.9944 41.9776 61.6059 43.2976C61.353 44.1572 60.8806 44.8271 60.1889 45.3073C59.5017 45.7722 58.6113 45.9355 57.5179 45.7971L57.5111 45.8201C58.6325 46.317 59.38 46.9789 59.7537 47.8061C60.1472 48.6224 60.2085 49.491 59.9374 50.412C59.5534 51.7167 58.7948 52.5942 57.6616 53.0445C56.5328 53.4796 55.0475 53.426 53.2056 52.8839L45.4697 50.6072ZM50.1115 48.9462L53.3578 49.9016C54.0792 50.1139 54.6594 50.1262 55.0982 49.9385C55.5371 49.7507 55.8378 49.3806 56.0005 48.828C56.1586 48.2908 56.1018 47.8321 55.83 47.4519C55.5628 47.0564 55.0685 46.7524 54.3471 46.5401L51.1008 45.5847L50.1115 48.9462ZM51.9343 42.7528L54.8122 43.5998C56.2243 44.0154 57.093 43.6706 57.4183 42.5655C57.7435 41.4604 57.2001 40.7 55.788 40.2844L52.91 39.4374L51.9343 42.7528ZM74.9327 59.2784L70.8575 58.079L70.8081 54.3368L65.6047 52.8054L63.513 55.9175L59.5299 54.7452L69.3436 41.1217L74.0864 42.5176L74.9327 59.2784ZM67.1343 50.3285L70.8641 51.4262L70.8084 44.7301L67.1343 50.3285ZM90.8873 59.2456C90.284 60.2189 89.5583 60.956 88.7104 61.457C87.867 61.9426 86.9527 62.2156 85.9676 62.2759C84.987 62.3209 83.9595 62.1852 82.8851 61.869C81.3501 61.4173 80.1128 60.7196 79.173 59.7758C78.2377 58.8167 77.6425 57.6659 77.3872 56.3231C77.1319 54.9804 77.2459 53.4879 77.7293 51.8456C78.2126 50.2032 78.9253 48.8869 79.8672 47.8965C80.8091 46.9062 81.9307 46.2689 83.2319 45.9847C84.5376 45.6852 85.9502 45.759 87.4697 46.2062C88.5288 46.5179 89.4583 46.9582 90.2582 47.5272C91.0626 48.0809 91.6815 48.755 92.1147 49.5497C92.548 50.3443 92.7528 51.2636 92.7291 52.3073L88.8392 52.6886C88.9044 51.6737 88.7434 50.9175 88.3561 50.4199C87.9842 49.9268 87.4299 49.5719 86.6931 49.355C85.9717 49.1427 85.2904 49.134 84.6493 49.329C84.0236 49.5284 83.461 49.9382 82.9615 50.5585C82.482 51.1678 82.0886 51.9944 81.7814 53.0381C81.4787 54.0665 81.354 54.9722 81.4071 55.755C81.4603 56.5379 81.6958 57.1826 82.1138 57.6892C82.5471 58.2003 83.1552 58.5711 83.938 58.8015C84.6747 59.0183 85.3551 59.0017 85.979 58.7517C86.6229 58.4909 87.1611 57.9655 87.5938 57.1755L90.8873 59.2456ZM110.072 53.1086L100.421 59.5497L100.344 58.8766L95.4352 62.2103L95.6173 58.7864L105.675 51.8143L110.072 53.1086ZM100.241 50.2152L95.7692 65.4108L91.8092 64.2453L96.2813 49.0497L100.241 50.2152ZM102.747 56.4066L105.877 68.3854L101.387 67.0641L99.1268 57.7427L102.747 56.4066ZM117.565 63.3946L116.624 66.5948L108.197 64.1148L109.139 60.9145L117.565 63.3946ZM118.835 72.1992L123.307 57.0036L135.141 60.4865L134.24 63.5486L126.366 61.2312L125.458 64.3164L131.72 66.1595L130.873 69.0374L124.611 67.1943L123.696 70.3025L131.87 72.708L130.968 75.7702L118.835 72.1992ZM151.531 65.3101L147.059 80.5057L142.661 79.2114L140.36 69.6029L139.873 67.0078L139.85 67.001L139.116 69.837L136.859 77.5039L133.36 76.4739L137.832 61.2783L142.229 62.5726L144.53 72.1811L145.017 74.7762L145.04 74.783L145.775 71.947L148.031 64.2801L151.531 65.3101ZM161.344 68.1981C163.723 68.8983 165.347 70.0936 166.217 71.7841C167.103 73.479 167.189 75.5391 166.475 77.9642C165.761 80.3894 164.573 82.0745 162.911 83.0196C161.264 83.9692 159.251 84.0939 156.871 83.3937L150.425 81.4964L154.897 66.3008L161.344 68.1981ZM157.361 80.2854C158.65 80.6649 159.699 80.5567 160.509 79.9609C161.338 79.3543 161.976 78.2912 162.423 76.7716C162.87 75.2521 162.907 74.0205 162.535 73.0769C162.182 72.1224 161.361 71.4554 160.071 71.076L157.976 70.4594L155.266 79.6688L157.361 80.2854Z" fill="white"/>
</svg>
