<svg width="181" height="103" viewBox="0 0 181 103" fill="none" xmlns="http://www.w3.org/2000/svg">
<path d="M14.5008 7.96096C16.5001 5.23362 20.1266 4.2628 23.2211 5.62651L32.8271 9.85972C34.9489 10.7948 37.2154 11.359 39.5281 11.5279L51.0157 12.3666C57.1877 12.8173 63.294 13.9256 69.2308 15.6729L97.2793 23.9278L122.384 31.3163C128.846 33.2183 135.1 35.7684 141.05 38.9277L152.827 45.1817C154.128 45.8723 155.525 46.3616 156.973 46.6331L167.368 48.5827C173.056 49.6496 175.691 56.2806 172.287 60.9608V60.9608C171.756 61.6904 171.355 62.5057 171.1 63.3712L166.173 80.1111V80.1111C163.471 89.2933 154.914 95.4969 145.347 95.2107L144.093 95.1731C141.657 95.1003 139.249 94.6353 136.961 93.7962L114.931 85.7156L81.9512 76.0094L45.9879 61.675L23.1756 54.9611L12.9655 51.9562C7.44772 50.3323 5.19163 43.7418 8.55658 39.0771V39.0771C9.10871 38.3117 9.52692 37.4582 9.79338 36.5528L12.0926 28.7406C12.9418 25.8552 13.3401 22.856 13.2734 19.849L13.1078 12.3825C13.0726 10.7955 13.5623 9.24121 14.5008 7.96096V7.96096Z" fill="black"/>
<path d="M39.4096 43.7557L43.1364 31.0927L49.2952 32.9053C50.8519 33.3774 51.9147 34.0168 52.4834 34.8235C53.0558 35.6174 53.1802 36.5644 52.8565 37.6644C52.6456 38.3807 52.252 38.9389 51.6756 39.3391C51.1029 39.7265 50.361 39.8626 49.4498 39.7473L49.4441 39.7665C50.3786 40.1805 51.0015 40.7322 51.3129 41.4215C51.6409 42.1017 51.6919 42.8256 51.466 43.593C51.1461 44.6803 50.5139 45.4115 49.5695 45.7868C48.6289 46.1493 47.3911 46.1047 45.8562 45.653L39.4096 43.7557ZM43.2778 42.3715L45.983 43.1677C46.5842 43.3446 47.0677 43.3549 47.4334 43.1984C47.7991 43.042 48.0497 42.7335 48.1852 42.2731C48.317 41.8254 48.2697 41.4431 48.0432 41.1263C47.8206 40.7967 47.4086 40.5434 46.8075 40.3665L44.1022 39.5703L43.2778 42.3715ZM44.7967 37.2104L47.195 37.9162C48.3718 38.2626 49.0957 37.9753 49.3667 37.0543C49.6378 36.1334 49.1849 35.4997 48.0082 35.1534L45.6099 34.4476L44.7967 37.2104ZM63.9621 50.9817L60.5661 49.9822L60.5249 46.8637L56.1888 45.5876L54.4457 48.181L51.1264 47.2041L59.3045 35.8511L63.2569 37.0144L63.9621 50.9817ZM57.4634 43.5235L60.5716 44.4382L60.5252 38.8581L57.4634 43.5235ZM77.2576 50.9544C76.7548 51.7654 76.1501 52.3797 75.4435 52.7972C74.7407 53.2019 73.9788 53.4293 73.1578 53.4796C72.3407 53.5171 71.4844 53.4041 70.5891 53.1406C69.31 52.7641 68.2788 52.1827 67.4957 51.3962C66.7163 50.597 66.2202 49.6379 66.0075 48.519C65.7947 47.4001 65.8898 46.1563 66.2926 44.7877C66.6954 43.4191 67.2892 42.3221 68.0742 41.4968C68.8591 40.6715 69.7938 40.1405 70.8781 39.9036C71.9661 39.654 73.1433 39.7155 74.4096 40.0882C75.2922 40.348 76.0668 40.7149 76.7334 41.1891C77.4037 41.6504 77.9194 42.2122 78.2805 42.8744C78.6415 43.5367 78.8122 44.3027 78.7925 45.1725L75.5509 45.4902C75.6052 44.6445 75.471 44.0143 75.1483 43.5996C74.8383 43.1887 74.3764 42.893 73.7624 42.7123C73.1613 42.5353 72.5936 42.5281 72.0593 42.6905C71.5378 42.8567 71.069 43.1982 70.6528 43.7151C70.2532 44.2229 69.9253 44.9117 69.6694 45.7815C69.4171 46.6385 69.3132 47.3932 69.3574 48.0456C69.4017 48.6979 69.598 49.2352 69.9463 49.6574C70.3074 50.0833 70.8141 50.3923 71.4665 50.5843C72.0804 50.765 72.6474 50.7512 73.1674 50.5428C73.7039 50.3255 74.1524 49.8876 74.513 49.2293L77.2576 50.9544ZM93.2452 45.8402L85.2026 51.2078L85.1383 50.6469L81.0475 53.4249L81.1993 50.5717L89.5807 44.7617L93.2452 45.8402ZM85.0527 43.429L81.3259 56.092L78.0258 55.1208L81.7526 42.4578L85.0527 43.429ZM87.1409 48.5885L89.7487 58.5709L86.0073 57.4698L84.1238 49.702L87.1409 48.5885ZM99.4894 54.4118L98.7045 57.0787L91.6823 55.0121L92.4672 52.3452L99.4894 54.4118ZM100.547 61.749L104.274 49.0861L114.136 51.9885L113.385 54.5402L106.823 52.6091L106.066 55.18L111.285 56.7159L110.579 59.1142L105.361 57.5783L104.598 60.1685L111.409 62.1731L110.658 64.7248L100.547 61.749ZM127.794 56.0081L124.067 68.6711L120.402 67.5926L118.485 59.5855L118.079 57.4229L118.06 57.4172L117.448 59.7806L115.567 66.1696L112.651 65.3113L116.378 52.6483L120.043 53.7269L121.96 61.7339L122.366 63.8965L122.385 63.9022L122.997 61.5389L124.877 55.1498L127.794 56.0081ZM135.971 58.4148C137.954 58.9983 139.308 59.9944 140.033 61.4031C140.771 62.8156 140.842 64.5323 140.247 66.5532C139.653 68.5742 138.663 69.9785 137.277 70.766C135.905 71.5573 134.227 71.6613 132.244 71.0778L126.872 69.4967L130.599 56.8337L135.971 58.4148ZM132.652 68.4876C133.727 68.8038 134.601 68.7136 135.275 68.2171C135.966 67.7116 136.498 66.8257 136.871 65.5594C137.243 64.2931 137.274 63.2668 136.964 62.4804C136.67 61.685 135.985 61.1292 134.911 60.813L133.165 60.2992L130.906 67.9737L132.652 68.4876Z" fill="white"/>
</svg>
