<svg width="148" height="70" viewBox="0 0 148 70" fill="none" xmlns="http://www.w3.org/2000/svg">
<path d="M7.25181 11.151C7.41132 6.67413 11.806 3.59053 16.0701 4.96345L22.0014 6.87313C23.2516 7.27565 24.5616 7.46037 25.8744 7.41921L35.4791 7.11812C41.7693 6.92093 48.0558 7.61128 54.1533 9.16879L77.3921 15.1048L107.918 22.9797L129.358 26.9342L136.827 27.3729C142.344 27.6969 146.329 32.7811 145.327 38.2158V38.2158C145.218 38.8042 145.053 39.3806 144.832 39.9368L139.787 52.6589C139.288 53.9168 139.1 55.2764 139.238 56.6225V56.6225C139.751 61.6242 135.796 65.9581 130.768 65.9023L123.471 65.8212C122.618 65.8118 121.767 65.7292 120.928 65.5744L100.749 61.8526L69.8219 56.1484L35.4677 46.6897L14.869 42.8904L8.96746 41.021C4.35092 39.5586 1.54572 34.8875 2.42409 30.1252V30.1252C2.51282 29.6442 2.63818 29.1706 2.79908 28.7086L4.04739 25.1245C5.03928 22.2766 5.8121 19.3571 6.35909 16.3914L7.14408 12.1354C7.20403 11.8104 7.24004 11.4813 7.25181 11.151V11.151Z" fill="#C8BEFF"/>
<path d="M38.5205 20.0318C40.9593 20.4816 42.6991 21.5021 43.7398 23.0933C44.7961 24.6873 45.0951 26.7274 44.6365 29.2134C44.178 31.6995 43.171 33.4987 41.6154 34.611C40.0756 35.7262 38.0862 36.0589 35.6474 35.609L29.0388 34.3901L31.9119 18.8129L38.5205 20.0318ZM35.8121 32.4668C37.1338 32.7106 38.1661 32.4942 38.9091 31.8178C39.6708 31.1285 40.1953 30.005 40.4826 28.4473C40.7699 26.8895 40.6793 25.6607 40.2108 24.7608C39.7608 23.8481 38.875 23.2698 37.5533 23.026L35.4056 22.6299L33.6643 32.0706L35.8121 32.4668ZM45.9797 37.5147L48.8528 21.9375L60.9841 24.175L60.4052 27.3141L52.3333 25.8253L51.75 28.988L58.1697 30.172L57.6256 33.1223L51.2058 31.9382L50.6182 35.1244L58.9968 36.6698L58.4179 39.8089L45.9797 37.5147ZM69.8751 25.5709C71.3227 25.8379 72.5551 26.3011 73.5723 26.9605C74.6082 27.6071 75.4555 28.4386 76.1141 29.4549L73.6719 31.7134C73.1259 30.8806 72.4915 30.2185 71.7686 29.7272C71.0643 29.2231 70.2166 28.8797 69.2253 28.6968C68.6431 28.5895 68.1595 28.5653 67.7743 28.6245C67.3892 28.6836 67.0977 28.8088 66.8997 29.0001C66.7017 29.1913 66.5766 29.4286 66.5244 29.7118C66.4634 30.0422 66.5607 30.353 66.8161 30.6442C67.0902 30.9225 67.5589 31.2042 68.2222 31.4892L70.7331 32.5625C72.2241 33.2117 73.2677 33.9492 73.8638 34.775C74.4599 35.6008 74.652 36.5881 74.4401 37.7367C74.237 38.8381 73.7811 39.7221 73.0724 40.3886C72.3667 41.0394 71.4819 41.47 70.418 41.6806C69.3571 41.8754 68.1894 41.8552 66.9149 41.6201C65.8764 41.4286 64.9054 41.1356 64.002 40.7412C63.1015 40.3311 62.3127 39.8439 61.6358 39.2798C60.9589 38.7157 60.4116 38.1103 59.994 37.4639L62.4535 35.111C62.7628 35.6398 63.1672 36.1374 63.6669 36.6038C64.1852 37.0573 64.7638 37.4488 65.4027 37.7781C66.0573 38.1104 66.7386 38.3418 67.4467 38.4724C67.9974 38.574 68.4638 38.6031 68.846 38.5597C69.244 38.5192 69.5498 38.4047 69.7635 38.2164C69.9772 38.028 70.1117 37.7844 70.1668 37.4854C70.2278 37.155 70.1605 36.8579 69.9651 36.594C69.7727 36.3145 69.3605 36.0351 68.7287 35.7559L65.9668 34.5875C65.1234 34.2204 64.386 33.8079 63.7546 33.3497C63.1418 32.8788 62.691 32.3238 62.4021 31.6848C62.1162 31.0301 62.053 30.27 62.2126 29.4046C62.3925 28.4291 62.8196 27.613 63.4939 26.9564C64.1711 26.2841 65.0538 25.8205 66.1421 25.5657C67.2304 25.3108 68.4747 25.3126 69.8751 25.5709ZM83.0139 28.2383L80.1408 43.8155L76.0813 43.0668L78.9544 27.4895L83.0139 28.2383ZM89.995 45.8771C88.6103 45.6217 87.4318 45.0871 86.4592 44.2732C85.5025 43.4622 84.8354 42.4036 84.4581 41.0975C84.0807 39.7914 84.0502 38.2808 84.3665 36.5657C84.6771 34.8821 85.2573 33.5005 86.1072 32.4207C86.9572 31.341 88.0238 30.5859 89.3072 30.1556C90.6063 29.7281 92.0504 29.6609 93.6396 29.954C95.4019 30.2791 96.7664 30.8643 97.7331 31.7097C98.7027 32.5393 99.3587 33.7016 99.7013 35.1965L95.6743 35.9912C95.6178 35.1511 95.3632 34.5021 94.9108 34.0445C94.4583 33.5868 93.8465 33.2869 93.0755 33.1447C92.3045 33.0025 91.6088 33.0694 90.9885 33.3454C90.371 33.6058 89.8539 34.0717 89.4372 34.7432C89.0234 35.3991 88.7193 36.2541 88.5248 37.3083C88.3217 38.4097 88.2935 39.3563 88.4403 40.1481C88.6029 40.9427 88.934 41.5733 89.4337 42.0396C89.952 42.4932 90.636 42.7983 91.4857 42.955C91.942 43.0392 92.3691 43.061 92.7671 43.0205C93.165 42.98 93.5245 42.8836 93.8454 42.7313C94.1693 42.5633 94.4389 42.3364 94.6543 42.0507C94.8726 41.7493 95.0224 41.3784 95.1036 40.9378L95.1472 40.7018L91.5833 40.0444L92.0839 37.3302L99.0936 38.6231L97.5439 47.0254L94.7825 46.5161L95.1504 42.8012L95.7068 43.4895C95.179 44.4985 94.4287 45.2143 93.456 45.6369C92.5018 46.0466 91.3481 46.1267 89.995 45.8771ZM117.567 34.6114L114.694 50.1887L110.186 49.3572L106.902 40.0389L106.149 37.5083L106.125 37.5039L105.688 40.4008L104.239 48.2602L100.651 47.5985L103.524 32.0213L108.032 32.8527L111.317 42.171L112.07 44.7017L112.094 44.706L112.53 41.8092L113.98 33.9497L117.567 34.6114Z" fill="black"/>
</svg>
