<svg width="233" height="104" viewBox="0 0 233 104" fill="none" xmlns="http://www.w3.org/2000/svg">
<path d="M4.46886 56.9363C2.22719 50.7412 6.52903 44.1204 13.1005 43.6517L24.4216 42.8443C25.9395 42.736 27.4383 42.441 28.884 41.9659L45.7831 36.4126C51.4783 34.541 57.3301 33.1854 63.2681 32.3621L109.365 25.9704L154.085 14.0172C160.035 12.4268 166.12 11.3895 172.261 10.9186L188.137 9.70091C189.959 9.56122 191.756 9.19785 193.489 8.61901L200.734 6.19864C209.573 3.24562 219.002 8.70018 220.849 17.835V17.835L228.142 39.3916C228.734 41.141 229.048 42.9725 229.072 44.8192V44.8192C229.182 53.3049 223.238 60.668 214.92 62.3497L202.091 64.9434L181.957 66.9224C176.899 67.4195 171.887 68.3015 166.963 69.5606L120.576 81.4232L65.6733 89.6422L38.6831 93.0695C37.522 93.2169 36.3739 93.4529 35.2487 93.7753L25.0713 96.6914C17.6657 98.8134 10.0241 94.1689 8.49759 86.6181V86.6181L6.61246 77.2936C5.98176 74.174 5.58816 71.0111 5.43502 67.832L5.0499 59.8374C5.00218 58.8468 4.80633 57.8689 4.46886 56.9363V56.9363Z" fill="#FED0AB"/>
<path d="M54.2729 59.4236L45.5828 61.1805L46.3041 64.7483L53.2358 63.3469L53.9211 66.7363L46.9893 68.1377L48.298 74.6108L43.9146 75.4969L40.5142 58.6772L53.5877 56.0341L54.2729 59.4236ZM64.146 53.8996C66.1508 53.4943 67.8015 53.6557 69.0982 54.3839C70.4084 55.0916 71.2215 56.227 71.5375 57.79C71.8844 59.506 71.5968 60.9258 70.6745 62.0495C69.7522 63.1732 68.2887 63.9377 66.2839 64.343L65.9225 64.6548L62.5841 65.3298L63.8257 71.4715L59.5189 72.3422L56.1184 55.5225L64.146 53.8996ZM65.0646 61.5921C65.9141 61.4204 66.5168 61.1217 66.8729 60.696C67.2289 60.2703 67.3314 59.6837 67.1802 58.9362C67.0325 58.2056 66.712 57.7134 66.2185 57.4595C65.7251 57.2056 65.0537 57.1645 64.2042 57.3362L61.0951 57.9648L61.9555 62.2207L65.0646 61.5921ZM67.824 61.9892L74.886 69.2355L70.0439 70.2144L64.2481 63.7201L67.824 61.9892ZM81.0064 50.2257C82.7053 49.8822 84.2369 49.9351 85.6009 50.3844C86.9786 50.8132 88.1292 51.6062 89.0528 52.7635C89.9765 53.9208 90.6221 55.4083 90.9896 57.2262C91.3571 59.0441 91.3401 60.6656 90.9385 62.0908C90.537 63.516 89.7865 64.7022 88.6871 65.6495C87.6012 66.5764 86.2088 67.2116 84.5099 67.5551C82.8109 67.8985 81.2726 67.8559 79.895 67.427C78.5139 66.9812 77.3616 66.1796 76.4379 65.0224C75.5143 63.8651 74.8687 62.3776 74.5012 60.5597C74.1337 58.7418 74.1507 57.1203 74.5522 55.6951C74.9538 54.2699 75.706 53.0922 76.8088 52.1619C77.9082 51.2145 79.3074 50.5691 81.0064 50.2257ZM81.7019 53.6661C80.8864 53.8309 80.2378 54.1654 79.7562 54.6695C79.2745 55.1736 78.9683 55.8456 78.8375 56.6856C78.7032 57.5085 78.7529 58.4976 78.9864 59.6529C79.2166 60.7912 79.555 61.7219 80.0019 62.445C80.4487 63.1682 80.9919 63.6684 81.6316 63.9459C82.2712 64.2233 82.9988 64.2795 83.8143 64.1147C84.6298 63.9498 85.2699 63.617 85.7346 63.1164C86.2162 62.6122 86.5225 61.9402 86.6533 61.1003C86.7841 60.2604 86.7345 59.2713 86.5043 58.133C86.2708 56.9777 85.9323 56.047 85.4889 55.3408C85.0421 54.6177 84.4988 54.1174 83.8592 53.84C83.2365 53.5592 82.5174 53.5012 81.7019 53.6661ZM107.468 45.1413L110.868 61.961L106 62.9451L98.9368 54.9033L97.1577 52.6635L97.1322 52.6686L97.8627 55.7571L99.5784 64.2434L95.7047 65.0265L92.3043 48.2068L97.1718 47.2228L104.235 55.2645L106.015 57.5044L106.04 57.4992L105.31 54.4107L103.594 45.9244L107.468 45.1413ZM125.337 41.5285L126.023 44.918L120.544 46.0257L123.259 59.456L118.875 60.3421L116.16 46.9118L110.656 48.0247L109.97 44.6353L125.337 41.5285ZM136.873 47.7642L137.589 51.3066L128.262 53.1923L127.546 49.6499L136.873 47.7642ZM142.542 55.5574L139.142 38.7377L152.241 36.0895L152.926 39.4789L144.21 41.241L144.901 44.6559L151.833 43.2545L152.477 46.44L145.545 47.8414L146.24 51.2818L155.287 49.4528L155.973 52.8422L142.542 55.5574ZM170.382 32.4219L173.783 49.2416L168.915 50.2256L161.851 42.1839L160.072 39.944L160.047 39.9492L160.777 43.0377L162.493 51.524L158.619 52.3071L155.219 35.4874L160.086 34.5033L167.15 42.5451L168.929 44.7849L168.955 44.7798L168.224 41.6913L166.509 33.205L170.382 32.4219ZM181.244 30.2259C183.877 29.6936 186.038 30.0171 187.727 31.1965C189.432 32.3726 190.556 34.3027 191.099 36.9871C191.642 39.6715 191.356 41.8867 190.241 43.6329C189.143 45.3757 187.278 46.5133 184.644 47.0457L177.509 48.4883L174.108 31.6686L181.244 30.2259ZM183.541 43.8203C184.968 43.5317 185.919 42.8975 186.393 41.9175C186.88 40.9171 186.954 39.5759 186.614 37.8939C186.274 36.2119 185.687 35.0132 184.852 34.2976C184.032 33.5617 182.908 33.338 181.48 33.6265L179.161 34.0954L181.222 44.2891L183.541 43.8203Z" fill="black"/>
</svg>
