<svg width="184" height="82" viewBox="0 0 184 82" fill="none" xmlns="http://www.w3.org/2000/svg">
<path d="M3.53634 45.0429C1.76293 40.1419 5.16617 34.9042 10.365 34.5334L19.3212 33.8946C20.522 33.809 21.7077 33.5756 22.8515 33.1997L34.4324 29.394C40.1276 27.5225 45.9795 26.1668 51.9174 25.3435L86.5209 20.5455L120.031 11.5886C125.981 9.99818 132.066 8.96088 138.206 8.48991L148.838 7.67451C150.279 7.56399 151.701 7.27653 153.072 6.8186L158.804 4.90382C165.797 2.56766 173.256 6.88282 174.717 14.1095V14.1095L180.487 31.1631C180.955 32.5471 181.203 33.996 181.222 35.457V35.457C181.31 42.1701 176.607 47.9952 170.027 49.3256L159.877 51.3775L145.536 52.7871C140.479 53.2842 135.466 54.1661 130.543 55.4253L95.3899 64.4148L51.9558 70.917L30.6036 73.6283C29.6851 73.7449 28.7767 73.9316 27.8866 74.1867L19.8351 76.4937C13.9765 78.1724 7.93119 74.4981 6.72352 68.5246V68.5246L5.23217 61.1478C4.73322 58.6799 4.42183 56.1777 4.30068 53.6627L3.99601 47.3381C3.95825 46.5544 3.80331 45.7807 3.53634 45.0429V45.0429Z" fill="#FED0AB"/>
<path d="M44.3593 46.9103L37.6745 48.2617L38.2294 51.0062L43.5615 49.9282L44.0886 52.5355L38.7565 53.6135L39.7631 58.5927L36.3914 59.2744L33.7756 46.3362L43.8322 44.303L44.3593 46.9103ZM51.954 42.6611C53.4961 42.3493 54.7659 42.4735 55.7633 43.0336C56.7712 43.578 57.3967 44.4514 57.6397 45.6537C57.9066 46.9737 57.6853 48.0658 56.9759 48.9302C56.2664 49.7946 55.1406 50.3827 53.5985 50.6945L53.3205 50.9343L50.7525 51.4535L51.7076 56.1779L48.3946 56.8477L45.7789 43.9095L51.954 42.6611ZM52.6606 48.5784C53.314 48.4463 53.7777 48.2165 54.0515 47.8891C54.3254 47.5616 54.4042 47.1104 54.288 46.5354C54.1744 45.9734 53.9278 45.5948 53.5482 45.3994C53.1687 45.2041 52.6521 45.1725 51.9987 45.3046L49.6071 45.7881L50.2689 49.0619L52.6606 48.5784ZM54.7832 48.8838L60.2155 54.4579L56.4908 55.2109L52.0325 50.2153L54.7832 48.8838ZM64.9235 39.835C66.2304 39.5708 67.4085 39.6114 68.4578 39.957C69.5175 40.2869 70.4026 40.897 71.1131 41.7871C71.8236 42.6773 72.3202 43.8216 72.6029 45.22C72.8856 46.6184 72.8725 47.8657 72.5636 48.962C72.2547 50.0583 71.6774 50.9708 70.8317 51.6995C69.9964 52.4125 68.9254 52.9011 67.6185 53.1653C66.3116 53.4295 65.1283 53.3967 64.0685 53.0668C63.0062 52.7238 62.1198 52.1073 61.4093 51.2171C60.6988 50.3269 60.2022 49.1826 59.9195 47.7842C59.6368 46.3858 59.6499 45.1385 59.9587 44.0422C60.2676 42.9459 60.8462 42.04 61.6946 41.3243C62.5403 40.5956 63.6166 40.0992 64.9235 39.835ZM65.4585 42.4814C64.8312 42.6082 64.3323 42.8655 63.9618 43.2533C63.5913 43.6411 63.3557 44.158 63.2551 44.8041C63.1518 45.4371 63.19 46.198 63.3697 47.0867C63.5467 47.9623 63.8071 48.6782 64.1508 49.2345C64.4945 49.7907 64.9124 50.1756 65.4044 50.389C65.8964 50.6024 66.4561 50.6456 67.0834 50.5188C67.7107 50.392 68.2031 50.136 68.5605 49.7509C68.9311 49.3631 69.1666 48.8462 69.2673 48.2001C69.3679 47.554 69.3297 46.7931 69.1527 45.9175C68.973 45.0288 68.7126 44.3129 68.3716 43.7697C68.0279 43.2135 67.61 42.8286 67.1179 42.6152C66.639 42.3992 66.0858 42.3546 65.4585 42.4814ZM85.2782 35.9239L87.8939 48.8621L84.1497 49.6191L78.7161 43.4332L77.3475 41.7102L77.3279 41.7142L77.8899 44.0899L79.2096 50.6178L76.2299 51.2203L73.6142 38.282L77.3584 37.525L82.792 43.711L84.1606 45.434L84.1802 45.43L83.6182 43.0542L82.2985 36.5263L85.2782 35.9239ZM99.0243 33.1449L99.5514 35.7521L95.3367 36.6042L97.4253 46.9352L94.0535 47.6169L91.9649 37.2859L87.7306 38.1419L87.2035 35.5347L99.0243 33.1449ZM107.898 37.9416L108.449 40.6664L101.274 42.117L100.723 39.3921L107.898 37.9416ZM112.259 43.9363L109.643 30.9981L119.719 28.961L120.246 31.5682L113.542 32.9236L114.073 35.5505L119.405 34.4725L119.901 36.9229L114.568 38.0009L115.103 40.6474L122.063 39.2404L122.59 41.8477L112.259 43.9363ZM133.674 26.1397L136.29 39.078L132.546 39.8349L127.112 33.649L125.743 31.926L125.724 31.93L126.286 34.3057L127.605 40.8337L124.626 41.4361L122.01 28.4978L125.754 27.7409L131.188 33.9268L132.556 35.6498L132.576 35.6458L132.014 33.2701L130.694 26.7421L133.674 26.1397ZM142.029 24.4506C144.055 24.041 145.717 24.2899 147.016 25.1972C148.328 26.1018 149.193 27.5866 149.61 29.6515C150.028 31.7164 149.808 33.4204 148.95 34.7636C148.106 36.1042 146.671 36.9793 144.645 37.3888L139.156 38.4985L136.54 25.5603L142.029 24.4506ZM143.796 34.9077C144.894 34.6858 145.625 34.1979 145.99 33.4441C146.365 32.6745 146.422 31.6428 146.16 30.349C145.898 29.0552 145.447 28.133 144.805 27.5826C144.174 27.0165 143.309 26.8444 142.211 27.0664L140.427 27.427L142.013 35.2684L143.796 34.9077Z" fill="black"/>
</svg>
